<svg width="26" height="26" viewBox="0 0 26 26" fill="none" xmlns="http://www.w3.org/2000/svg">
<path d="M12.9997 15.6834L3.608 25.075C3.25661 25.4264 2.80939 25.6021 2.26633 25.6021C1.72328 25.6021 1.27605 25.4264 0.924666 25.075C0.573277 24.7236 0.397583 24.2764 0.397583 23.7334C0.397583 23.1903 0.573277 22.7431 0.924666 22.3917L10.3163 13L0.924666 3.60837C0.573277 3.25698 0.397583 2.80975 0.397583 2.2667C0.397583 1.72364 0.573277 1.27642 0.924666 0.925032C1.27605 0.573643 1.72328 0.397949 2.26633 0.397949C2.80939 0.397949 3.25661 0.573643 3.608 0.925032L12.9997 10.3167L22.3913 0.925032C22.7427 0.573643 23.1899 0.397949 23.733 0.397949C24.2761 0.397949 24.7233 0.573643 25.0747 0.925032C25.4261 1.27642 25.6018 1.72364 25.6018 2.2667C25.6018 2.80975 25.4261 3.25698 25.0747 3.60837L15.683 13L25.0747 22.3917C25.4261 22.7431 25.6018 23.1903 25.6018 23.7334C25.6018 24.2764 25.4261 24.7236 25.0747 25.075C24.7233 25.4264 24.2761 25.6021 23.733 25.6021C23.1899 25.6021 22.7427 25.4264 22.3913 25.075L12.9997 15.6834Z" fill="#2F5088"/>
</svg>
