<svg width="17" height="11" viewBox="0 0 17 11" fill="none" xmlns="http://www.w3.org/2000/svg">
<path fill-rule="evenodd" clip-rule="evenodd" d="M0 5.6001C0 5.44097 0.0632141 5.28836 0.175736 5.17584C0.288258 5.06331 0.44087 5.0001 0.6 5.0001H14.7516L10.9752 1.2249C10.8625 1.11223 10.7992 0.95943 10.7992 0.800099C10.7992 0.640768 10.8625 0.487963 10.9752 0.375299C11.0879 0.262635 11.2407 0.199341 11.4 0.199341C11.5593 0.199341 11.7121 0.262635 11.8248 0.375299L16.6248 5.1753C16.6807 5.23103 16.725 5.29724 16.7553 5.37014C16.7855 5.44303 16.8011 5.52118 16.8011 5.6001C16.8011 5.67902 16.7855 5.75716 16.7553 5.83006C16.725 5.90295 16.6807 5.96916 16.6248 6.0249L11.8248 10.8249C11.7121 10.9376 11.5593 11.0009 11.4 11.0009C11.2407 11.0009 11.0879 10.9376 10.9752 10.8249C10.8625 10.7122 10.7992 10.5594 10.7992 10.4001C10.7992 10.2408 10.8625 10.088 10.9752 9.9753L14.7516 6.2001H0.6C0.44087 6.2001 0.288258 6.13689 0.175736 6.02436C0.0632141 5.91184 0 5.75923 0 5.6001Z" fill="#F5ED59"/>
</svg>
