<svg width="17" height="11" viewBox="0 0 17 11" fill="none" xmlns="http://www.w3.org/2000/svg">
<path fill-rule="evenodd" clip-rule="evenodd" d="M17 5.6001C17 5.75923 16.9368 5.91184 16.8243 6.02436C16.7117 6.13688 16.5591 6.2001 16.4 6.2001L2.2484 6.2001L6.0248 9.9753C6.13746 10.088 6.20076 10.2408 6.20076 10.4001C6.20076 10.5594 6.13746 10.7122 6.0248 10.8249C5.91214 10.9376 5.75933 11.0009 5.6 11.0009C5.44067 11.0009 5.28786 10.9376 5.1752 10.8249L0.375198 6.0249C0.319323 5.96916 0.274992 5.90295 0.244745 5.83006C0.214497 5.75716 0.198927 5.67902 0.198927 5.6001C0.198927 5.52118 0.214497 5.44303 0.244745 5.37014C0.274992 5.29724 0.319323 5.23103 0.375198 5.1753L5.1752 0.375297C5.28786 0.262632 5.44067 0.199339 5.6 0.199339C5.75933 0.199339 5.91214 0.262632 6.0248 0.375297C6.13746 0.48796 6.20076 0.640765 6.20076 0.800097C6.20076 0.959428 6.13746 1.11223 6.0248 1.2249L2.2484 5.0001L16.4 5.0001C16.5591 5.0001 16.7117 5.06331 16.8243 5.17583C16.9368 5.28835 17 5.44097 17 5.6001Z" fill="#F5ED59"/>
</svg>
