<svg width="39" height="36" viewBox="0 0 39 36" fill="none" xmlns="http://www.w3.org/2000/svg">
<path d="M0.0944456 15.637C5.00603 6.22946 15.6905 1.25094 23.2122 0.208379C26.2757 -0.216199 28.8539 0.0118308 30.3625 0.857755C32.08 1.82083 32.5403 3.45951 31.0681 5.72604C29.986 7.39232 27.7456 9.45483 24.0117 11.8907C27.0971 12.5666 30.3809 14.025 33.718 16.6072C37.8376 19.7951 39.0722 23.6223 38.3064 26.9989C37.9341 28.6396 37.0883 30.1668 35.8712 31.4551C34.6644 32.7328 33.0897 33.7785 31.2488 34.4696C26.1802 36.3721 19.0743 35.5865 12.0903 29.5115L12.8229 28.6698C19.4498 34.4342 26.1273 35.2039 30.8604 33.4273C32.5364 32.798 33.967 31.8493 35.06 30.692C36.1426 29.5459 36.8932 28.1963 37.2202 26.7546C37.8952 23.7787 36.7654 20.3729 33.0375 17.4883C29.4282 14.6953 25.8908 13.2813 22.6249 12.7698C19.3506 14.7896 15.0943 17.0465 9.68202 19.5293L9.6798 19.5315C7.848 20.3618 6.60981 20.5691 5.90513 20.3657C4.64469 20.002 4.67608 18.7957 5.78918 17.3356C6.65135 16.2045 8.23971 14.854 10.3603 13.7337C13.4284 12.1131 17.6381 10.9515 22.4107 11.6057C26.5901 8.9972 29.0247 6.82926 30.135 5.11987C31.1589 3.54324 30.907 2.4414 29.8173 1.83034C28.5179 1.10176 26.1907 0.920071 23.3647 1.31178C16.1056 2.3177 5.80173 7.10834 1.08014 16.1518C0.592048 16.9971 -0.290065 16.3032 0.0944456 15.637ZM9.22217 18.5155C13.9487 16.348 17.7712 14.3656 20.8126 12.5738C16.8985 12.3396 13.4602 13.3563 10.8794 14.7195C8.91023 15.7599 7.45232 16.9913 6.67471 18.0117C6.14803 18.7026 5.94483 19.2194 6.21486 19.2972C6.68182 19.4319 7.6509 19.2274 9.22217 18.5155Z" fill="#2F5088"/>
<path fill-rule="evenodd" clip-rule="evenodd" d="M7.99413 30.9256L8.551 31.3577C8.73573 31.3678 8.72549 31.2507 8.82547 30.986C8.88455 30.8294 8.94401 30.6648 8.99921 30.5044C9.11083 30.18 9.23537 29.8601 9.34587 29.5396C9.45343 29.2277 9.5703 28.8972 9.68976 28.5865C9.73075 28.4799 9.8239 28.1715 9.86739 28.1024C9.97106 27.9376 10.2325 28.2184 10.3517 28.3108C10.6803 28.5658 11.0469 28.829 11.3614 29.0949C11.6393 29.3297 11.4347 29.6868 11.4999 29.9972C11.5335 30.1572 11.7469 30.2836 11.8973 30.4009C11.9842 30.4685 12.057 30.5179 12.1335 30.4251C12.2106 30.3315 12.5227 29.3784 12.6529 29.2106C12.7841 29.0414 13.6077 28.5187 13.6927 28.4154C13.7703 28.3212 13.7143 28.2577 13.6289 28.1912C13.4853 28.0792 13.2974 27.8921 13.1286 27.8983C13.0255 27.9021 12.8084 27.9828 12.6926 28.0166C12.5358 28.0623 12.4084 28.1179 12.2305 27.9957C11.8722 27.7497 11.3475 27.3131 10.9647 27.0155C10.7041 26.8129 10.9153 26.7732 11.3039 26.5018C11.5779 26.3104 11.8656 26.1132 12.1509 25.9255L13.4132 25.0685C13.6603 24.8991 13.7648 24.878 13.7136 24.704L13.1333 24.2537C13.045 24.2578 13.04 24.2184 12.908 24.2546C12.7868 24.2879 11.6532 24.7466 11.4831 24.8109C10.8066 25.0663 10.1306 25.3508 9.44576 25.6132C9.25974 25.6844 9.19512 25.6425 8.99875 25.4898C8.68367 25.2448 8.36812 25.0005 8.05275 24.7558C7.7902 24.552 7.40273 24.1965 7.11885 24.1189C6.18337 23.863 5.99818 24.687 6.35906 25.1615C6.53013 25.3864 6.99837 25.7092 7.248 25.9029C7.56337 26.1475 7.87864 26.3923 8.19428 26.6367C8.48564 26.8623 8.35131 26.99 8.31208 27.4754C8.29029 27.7457 8.23573 28.0629 8.20508 28.3424C8.17812 28.5884 8.11664 28.9748 8.09642 29.2097C8.06549 29.5697 7.98361 30.124 7.93394 30.5143C7.89766 30.8002 7.90513 30.741 7.99413 30.9256Z" fill="#2F5088"/>
</svg>
