<svg width="25" height="26" viewBox="0 0 25 26" fill="none" xmlns="http://www.w3.org/2000/svg">
<path fill-rule="evenodd" clip-rule="evenodd" d="M7.50645 1.01106C8.81815 0.950675 9.23637 0.937256 12.5777 0.937256C15.919 0.937256 16.3372 0.951793 17.6478 1.01106C18.9584 1.07033 19.853 1.27944 20.6357 1.58248C21.4554 1.89224 22.199 2.37643 22.8141 3.00265C23.4403 3.61657 23.9234 4.35908 24.232 5.17987C24.5362 5.96264 24.7442 6.85724 24.8046 8.16558C24.8649 9.47952 24.8784 9.89774 24.8784 13.2379C24.8784 16.5792 24.8638 16.9975 24.8046 18.3092C24.7453 19.6175 24.5362 20.5121 24.232 21.2949C23.9234 22.1158 23.4395 22.8595 22.8141 23.4743C22.199 24.1005 21.4554 24.5836 20.6357 24.8923C19.853 25.1964 18.9584 25.4044 17.65 25.4648C16.3372 25.5252 15.919 25.5386 12.5777 25.5386C9.23637 25.5386 8.81815 25.5241 7.50645 25.4648C6.19811 25.4055 5.30351 25.1964 4.52074 24.8923C3.69986 24.5836 2.95612 24.0997 2.34128 23.4743C1.71549 22.86 1.23122 22.1167 0.922234 21.296C0.619191 20.5132 0.411197 19.6186 0.350812 18.3103C0.290427 16.9963 0.277008 16.5781 0.277008 13.2379C0.277008 9.89662 0.291545 9.4784 0.350812 8.16782C0.410079 6.85724 0.619191 5.96264 0.922234 5.17987C1.23168 4.35917 1.71632 3.6158 2.3424 3.00153C2.95636 2.37588 3.69936 1.89161 4.51962 1.58248C5.30239 1.27944 6.19699 1.07145 7.50533 1.01106H7.50645ZM17.5483 3.22518C16.2511 3.16591 15.862 3.15361 12.5777 3.15361C9.2934 3.15361 8.90425 3.16591 7.60709 3.22518C6.40722 3.27998 5.7564 3.48014 5.32252 3.649C4.74886 3.87264 4.33847 4.13767 3.90794 4.56819C3.49984 4.96523 3.18576 5.44856 2.98875 5.98277C2.81989 6.41665 2.61973 7.06746 2.56493 8.26734C2.50567 9.5645 2.49337 9.95365 2.49337 13.2379C2.49337 16.5222 2.50567 16.9114 2.56493 18.2085C2.61973 19.4084 2.81989 20.0592 2.98875 20.4931C3.18556 21.0265 3.49979 21.5107 3.90794 21.9077C4.30492 22.3158 4.78912 22.6301 5.32252 22.8269C5.7564 22.9957 6.40722 23.1959 7.60709 23.2507C8.90425 23.3099 9.29228 23.3222 12.5777 23.3222C15.8631 23.3222 16.2511 23.3099 17.5483 23.2507C18.7481 23.1959 19.399 22.9957 19.8328 22.8269C20.4065 22.6032 20.8169 22.3382 21.2474 21.9077C21.6556 21.5107 21.9698 21.0265 22.1666 20.4931C22.3355 20.0592 22.5356 19.4084 22.5904 18.2085C22.6497 16.9114 22.662 16.5222 22.662 13.2379C22.662 9.95365 22.6497 9.5645 22.5904 8.26734C22.5356 7.06746 22.3355 6.41665 22.1666 5.98277C21.943 5.40911 21.6779 4.99872 21.2474 4.56819C20.8504 4.16011 20.367 3.84604 19.8328 3.649C19.399 3.48014 18.7481 3.27998 17.5483 3.22518ZM11.0066 17.0299C11.884 17.3951 12.861 17.4444 13.7708 17.1694C14.6805 16.8943 15.4665 16.3119 15.9946 15.5217C16.5227 14.7314 16.76 13.7824 16.666 12.8366C16.5721 11.8908 16.1527 11.007 15.4795 10.3361C15.0504 9.90722 14.5315 9.57883 13.9602 9.37457C13.3889 9.1703 12.7794 9.09524 12.1757 9.1548C11.5719 9.21435 10.9888 9.40703 10.4685 9.71897C9.94808 10.0309 9.50335 10.4543 9.16626 10.9588C8.82918 11.4632 8.60813 12.0361 8.51904 12.6363C8.42994 13.2364 8.47502 13.8488 8.65102 14.4294C8.82701 15.0101 9.12956 15.5444 9.53687 15.9941C9.94418 16.4437 10.4461 16.7975 11.0066 17.0299ZM8.10695 8.76719C8.69405 8.18009 9.39105 7.71437 10.1581 7.39663C10.9252 7.07889 11.7474 6.91536 12.5777 6.91536C13.408 6.91536 14.2301 7.07889 14.9972 7.39663C15.7643 7.71437 16.4613 8.18009 17.0484 8.76719C17.6355 9.3543 18.1012 10.0513 18.419 10.8184C18.7367 11.5855 18.9003 12.4076 18.9003 13.2379C18.9003 14.0682 18.7367 14.8904 18.419 15.6575C18.1012 16.4246 17.6355 17.1216 17.0484 17.7087C15.8627 18.8944 14.2545 19.5605 12.5777 19.5605C10.9008 19.5605 9.29266 18.8944 8.10695 17.7087C6.92123 16.523 6.25511 14.9148 6.25511 13.2379C6.25511 11.5611 6.92123 9.95291 8.10695 8.76719ZM20.3025 7.85695C20.448 7.7197 20.5645 7.55466 20.645 7.3716C20.7256 7.18853 20.7686 6.99117 20.7715 6.79118C20.7744 6.5912 20.7372 6.39266 20.662 6.20732C20.5868 6.02199 20.4752 5.85362 20.3338 5.7122C20.1923 5.57077 20.024 5.45916 19.8386 5.38397C19.6533 5.30878 19.4548 5.27154 19.2548 5.27446C19.0548 5.27737 18.8574 5.32038 18.6744 5.40094C18.4913 5.4815 18.3263 5.59798 18.189 5.74346C17.9221 6.02641 17.776 6.40225 17.7817 6.79118C17.7873 7.18012 17.9443 7.55153 18.2194 7.82658C18.4944 8.10162 18.8659 8.25865 19.2548 8.26432C19.6437 8.26999 20.0196 8.12386 20.3025 7.85695Z" fill="#2F5088"/>
</svg>
