<svg width="25" height="26" viewBox="0 0 25 26" fill="none" xmlns="http://www.w3.org/2000/svg">
<path fill-rule="evenodd" clip-rule="evenodd" d="M18.05 15.6797C17.7445 15.5269 16.2469 14.7909 15.9681 14.6884C15.6893 14.5869 15.4863 14.5367 15.2823 14.8422C15.0794 15.1456 14.4961 15.8324 14.3188 16.0354C14.1404 16.2393 13.9631 16.2639 13.6586 16.1122C13.3542 15.9585 12.3722 15.6376 11.2087 14.6003C10.3036 13.7925 9.69166 12.7952 9.51432 12.4897C9.33699 12.1852 9.49485 12.0202 9.64758 11.8685C9.78494 11.7322 9.95202 11.5128 10.1048 11.3355C10.2575 11.1571 10.3077 11.03 10.4092 10.826C10.5117 10.6231 10.4604 10.4457 10.3836 10.293C10.3077 10.1403 9.69883 8.6406 9.44462 8.03069C9.19758 7.43718 8.94644 7.51816 8.75988 7.50791C8.58152 7.49971 8.37856 7.49766 8.1756 7.49766C7.97264 7.49766 7.64257 7.57351 7.36375 7.87898C7.08391 8.18342 6.29769 8.92044 6.29769 10.4201C6.29769 11.9187 7.38835 13.3671 7.54109 13.5711C7.69382 13.7741 9.68858 16.8513 12.7443 18.1705C13.4721 18.4842 14.0389 18.6718 14.4807 18.8112C15.2106 19.0439 15.8748 19.0111 16.3996 18.9322C16.9839 18.845 18.2017 18.1951 18.4559 17.4838C18.7091 16.7724 18.7091 16.1625 18.6332 16.0354C18.5574 15.9082 18.3544 15.8324 18.0489 15.6797H18.05ZM12.4921 23.2682H12.488C10.6731 23.2685 8.89147 22.7806 7.32993 21.8556L6.96091 21.6363L3.12514 22.6429L4.14918 18.9035L3.90829 18.5201C2.89362 16.905 2.35665 15.0357 2.35943 13.1283C2.36148 7.54174 6.90658 2.99664 12.4962 2.99664C15.2024 2.99664 17.7465 4.05244 19.6593 5.96725C20.6027 6.9068 21.3505 8.02409 21.8594 9.2545C22.3682 10.4849 22.628 11.804 22.6238 13.1355C22.6217 18.722 18.0766 23.2682 12.4921 23.2682ZM21.1149 4.51269C19.9855 3.37583 18.6417 2.47441 17.1613 1.86067C15.681 1.24693 14.0936 0.933077 12.4911 0.937298C5.77286 0.937298 0.303164 6.40597 0.301114 13.1273C0.298001 15.2663 0.859129 17.3683 1.92788 19.2212L0.198608 25.5387L6.66056 23.8432C8.44813 24.8171 10.4513 25.3274 12.487 25.3275H12.4921C19.2103 25.3275 24.68 19.8588 24.6821 13.1365C24.687 11.5346 24.3743 9.94765 23.762 8.4674C23.1497 6.98715 22.25 5.64299 21.1149 4.51269Z" fill="#2F5088"/>
</svg>
