<svg width="30" height="22" viewBox="0 0 30 22" fill="none" xmlns="http://www.w3.org/2000/svg">
<path d="M29.7906 10.6257C29.7906 10.5543 29.7906 10.4731 29.7874 10.379C29.7841 10.1162 29.7776 9.82092 29.7711 9.50617C29.7452 8.60084 29.6997 7.69876 29.6284 6.84859C29.531 5.67718 29.3882 4.70047 29.1935 3.96712C28.9881 3.20181 28.5854 2.50383 28.0256 1.94294C27.4659 1.38205 26.7687 0.977902 26.0038 0.77089C25.0855 0.524277 23.2878 0.371767 20.7568 0.277665C19.5529 0.232236 18.2647 0.203032 16.9765 0.186808C16.5254 0.180318 16.1068 0.177073 15.7304 0.173828H14.7764C14.4 0.177073 13.9814 0.180318 13.5304 0.186808C12.2422 0.203032 10.9539 0.232236 9.75009 0.277665C7.21906 0.375012 5.41814 0.527522 4.50308 0.77089C3.73793 0.977394 3.0405 1.38137 2.48067 1.94234C1.92085 2.5033 1.51829 3.20156 1.31334 3.96712C1.1154 4.70047 0.97587 5.67718 0.878523 6.84859C0.807135 7.69876 0.761707 8.60084 0.735747 9.50617C0.726013 9.82092 0.722768 10.1162 0.719523 10.379C0.719523 10.4731 0.716278 10.5543 0.716278 10.6257V10.8074C0.716278 10.8788 0.716278 10.9599 0.719523 11.054C0.722768 11.3168 0.729258 11.6121 0.735747 11.9269C0.761707 12.8322 0.807135 13.7343 0.878523 14.5844C0.97587 15.7558 1.11865 16.7326 1.31334 17.4659C1.72869 19.0202 2.94877 20.2468 4.50308 20.6621C5.41814 20.9088 7.21906 21.0613 9.75009 21.1554C10.9539 21.2008 12.2422 21.23 13.5304 21.2462C13.9814 21.2527 14.4 21.256 14.7764 21.2592H15.7304C16.1068 21.256 16.5254 21.2527 16.9765 21.2462C18.2647 21.23 19.5529 21.2008 20.7568 21.1554C23.2878 21.058 25.0887 20.9055 26.0038 20.6621C27.5581 20.2468 28.7782 19.0235 29.1935 17.4659C29.3915 16.7326 29.531 15.7558 29.6284 14.5844C29.6997 13.7343 29.7452 12.8322 29.7711 11.9269C29.7809 11.6121 29.7841 11.3168 29.7874 11.054C29.7874 10.9599 29.7906 10.8788 29.7906 10.8074V10.6257ZM27.4543 10.7944C27.4543 10.8625 27.4543 10.9372 27.451 11.0248C27.4478 11.2779 27.4413 11.5569 27.4348 11.8587C27.4121 12.7219 27.3667 13.585 27.2985 14.3865C27.2109 15.4314 27.0876 16.288 26.9351 16.8624C26.7339 17.6119 26.1433 18.2058 25.397 18.4037C24.7156 18.5854 22.999 18.7314 20.6659 18.819C19.4848 18.8645 18.2128 18.8937 16.944 18.9099C16.4995 18.9164 16.0874 18.9196 15.7175 18.9196H14.7894L13.5628 18.9099C12.2941 18.8937 11.0253 18.8645 9.84094 18.819C7.50786 18.7282 5.78806 18.5854 5.10988 18.4037C4.36355 18.2025 3.77298 17.6119 3.57179 16.8624C3.41928 16.288 3.29598 15.4314 3.20836 14.3865C3.14022 13.585 3.09804 12.7219 3.07208 11.8587C3.06234 11.5569 3.0591 11.2746 3.05585 11.0248C3.05585 10.9372 3.05261 10.8593 3.05261 10.7944V10.6386C3.05261 10.5705 3.05261 10.4959 3.05585 10.4082C3.0591 10.1551 3.06559 9.87609 3.07208 9.57431C3.09479 8.71117 3.14022 7.84802 3.20836 7.04653C3.29598 6.00167 3.41928 5.14502 3.57179 4.57067C3.77298 3.8211 4.36355 3.22728 5.10988 3.02934C5.79131 2.84763 7.50786 2.70161 9.84094 2.61399C11.0221 2.56857 12.2941 2.53936 13.5628 2.52314C14.0074 2.51665 14.4195 2.5134 14.7894 2.5134H15.7175L16.944 2.52314C18.2128 2.53936 19.4815 2.56857 20.6659 2.61399C22.999 2.70485 24.7188 2.84763 25.397 3.02934C26.1433 3.23053 26.7339 3.8211 26.9351 4.57067C27.0876 5.14502 27.2109 6.00167 27.2985 7.04653C27.3667 7.84802 27.4088 8.71117 27.4348 9.57431C27.4445 9.87609 27.4478 10.1584 27.451 10.4082C27.451 10.4959 27.4543 10.5737 27.4543 10.6386V10.7944ZM12.3655 15.0647L19.8937 10.6841L12.3655 6.36835V15.0647Z" fill="#2F5088"/>
</svg>
