<svg width="392" height="364" viewBox="0 0 392 364" fill="none" xmlns="http://www.w3.org/2000/svg">
<path d="M202.23 363.588C288.754 363.588 358.895 293.447 358.895 206.923C358.895 120.399 288.754 50.2577 202.23 50.2577C115.706 50.2577 45.5647 120.399 45.5647 206.923C45.5647 293.447 115.706 363.588 202.23 363.588Z" fill="#2F5088"/>
<path d="M191.839 201.535C209.126 201.535 223.139 188.058 223.139 171.434C223.139 154.809 209.126 141.332 191.839 141.332C174.552 141.332 160.538 154.809 160.538 171.434C160.538 188.058 174.552 201.535 191.839 201.535Z" fill="#F5ED59"/>
<path fill-rule="evenodd" clip-rule="evenodd" d="M106.193 221.68C83.1759 203.25 53.5266 193.555 17.3992 197.966C4.47002 199.545 2.56548 205.349 16.6392 206.955C53.5357 211.162 81.1764 221.96 103.049 242.793C146.401 284.082 167.69 296.133 184.044 264.666C195.874 241.897 207.989 239.11 217.611 249.289C248.247 281.693 271.811 279.766 294.494 239.436C307.183 216.876 331.223 198.337 366.401 183.236C370.762 180.024 370.504 178.69 364.614 179.667C325.686 183.82 296.959 192.605 284.537 211.61C265.912 240.096 243.139 245.037 220.434 225.037C207.482 213.627 194.304 215.08 179.285 225.688C151.391 245.38 128.491 239.536 106.193 221.68V221.68Z" fill="#2F5088" stroke="#2F5088" stroke-width="0.89947" stroke-miterlimit="22.9256"/>
<path d="M19.9326 153.533C17.9737 153.175 16.2185 153.139 14.6849 153.424C13.1513 153.705 11.8349 154.243 10.7311 155.035C9.62723 155.826 8.73151 156.849 8.03483 158.088C7.33816 159.332 6.84959 160.73 6.56458 162.291C6.41077 163.132 6.29315 163.892 6.2253 164.566C6.15291 165.249 6.09863 165.905 6.07149 166.534L28.451 170.637C28.7088 170.045 28.935 169.371 29.1341 168.593C29.3331 167.824 29.505 167.059 29.6407 166.299C30.265 162.915 29.7629 160.119 28.1388 157.912C26.5102 155.704 23.7778 154.243 19.9326 153.533V153.533ZM21.2038 146.285C24.1443 146.819 26.6324 147.715 28.6726 148.977C30.7174 150.23 32.3098 151.773 33.4634 153.596C34.6124 155.419 35.3453 157.491 35.671 159.83C35.9967 162.151 35.9108 164.666 35.4177 167.358C35.3001 167.968 35.1734 168.642 35.0196 169.362C34.8703 170.085 34.6803 170.836 34.4451 171.592C34.2098 172.361 33.9565 173.116 33.6624 173.867C33.3729 174.627 33.0427 175.324 32.6581 175.971C31.69 177.59 30.4369 178.265 28.9079 177.984L2.21717 173.094C1.56121 172.976 1.08621 172.705 0.792156 172.27C0.493582 171.841 0.294534 171.275 0.199533 170.583C-0.0311834 169.154 -0.058327 167.638 0.100008 166.041C0.26739 164.431 0.480013 162.924 0.737872 161.513C1.23097 158.785 2.04978 156.351 3.1717 154.211C4.29814 152.071 5.70958 150.334 7.41959 148.995C9.12961 147.656 11.1382 146.738 13.4454 146.236C15.7525 145.743 18.3356 145.756 21.2038 146.285V146.285Z" fill="#2F5088"/>
<path d="M16.8971 133.343C16.9468 133.04 17.0328 132.605 17.1459 132.031C17.259 131.461 17.4445 130.868 17.7068 130.253C18.2135 129.027 18.8061 128.226 19.4847 127.842C20.1588 127.466 21.0681 127.507 22.19 127.986L43.5697 136.88C43.5245 137.183 43.4475 137.618 43.3254 138.188C43.2123 138.762 43.0223 139.35 42.7735 139.97C42.2533 141.196 41.6606 141.997 40.9821 142.368C40.308 142.757 39.4032 142.707 38.2768 142.237L16.8971 133.343V133.343ZM9.26987 130.76C8.27915 130.352 7.57795 129.656 7.17533 128.665C6.76818 127.674 6.7908 126.629 7.23866 125.544C7.7001 124.444 8.41034 123.711 9.40106 123.318C10.3873 122.929 11.3735 122.933 12.3597 123.345C13.382 123.775 14.0968 124.471 14.5175 125.444C14.9292 126.426 14.9156 127.448 14.4542 128.543C13.9973 129.633 13.2825 130.389 12.2918 130.787C11.3011 131.198 10.2968 131.194 9.26987 130.76V130.76Z" fill="#2F5088"/>
<path d="M47.2159 119.206C47.7271 118.265 48.1071 117.351 48.3468 116.478C48.5911 115.6 48.6771 114.913 48.6047 114.419L43.1987 111.493L41.0815 116.455C40.516 117.835 40.2627 118.975 40.3306 119.902C40.4029 120.816 40.9096 121.526 41.8506 122.038C42.7915 122.549 43.7144 122.59 44.6101 122.173C45.5058 121.753 46.379 120.766 47.2159 119.206V119.206ZM27.2747 108.701C28.9893 105.507 31.0476 103.336 33.4317 102.169C35.8248 101.002 38.4486 101.192 41.3077 102.739L52.5721 108.81C53.3547 109.235 53.8704 109.764 54.1102 110.393C54.359 111.031 54.5038 111.746 54.54 112.519C54.5988 113.732 54.4224 115.116 53.9881 116.695C53.5628 118.26 52.8661 119.943 51.898 121.73C50.1473 124.978 48.1342 127.208 45.8813 128.394C43.6239 129.588 41.2399 129.52 38.7336 128.163C36.5577 126.982 35.2639 125.399 34.8567 123.399C34.445 121.391 34.8205 119.002 35.9831 116.234L38.901 109.185L38.0234 108.71C36.7884 108.041 35.6439 108.005 34.5717 108.57C33.5086 109.149 32.536 110.258 31.6583 111.882C30.9752 113.153 30.464 114.465 30.1202 115.84C29.7809 117.206 29.5819 118.486 29.5367 119.672C29.0843 119.889 28.564 120.002 27.994 120.006C27.4285 120.015 26.8857 119.875 26.3564 119.599C25.714 119.246 25.2616 118.808 25.0219 118.283C24.7821 117.754 24.6826 117.066 24.7323 116.202C24.8454 115.048 25.135 113.822 25.5919 112.51C26.0442 111.203 26.6052 109.927 27.2747 108.701V108.701Z" fill="#2F5088"/>
<path d="M48.2609 77.9391C49.3918 76.5684 50.6585 75.4736 52.0745 74.6548C53.4904 73.8269 55.0059 73.3429 56.6345 73.1981C58.2586 73.0443 59.9369 73.2705 61.6831 73.8586C63.4157 74.4467 65.1891 75.4872 66.9851 76.9574C68.7901 78.4322 70.1427 79.9794 71.0656 81.5989C71.993 83.2049 72.5223 84.8606 72.658 86.5525C72.7982 88.2535 72.5584 89.9499 71.9206 91.6509C71.2872 93.3564 70.3056 95.0166 68.971 96.6452C67.6094 98.3055 66.2296 99.5857 64.8227 100.486C63.4157 101.386 62.1129 102.011 60.9095 102.368C60.0229 102.635 59.2176 102.725 58.5164 102.621C57.8062 102.526 57.1321 102.201 56.4671 101.662L32.9883 82.4042C33.0924 82.0965 33.2869 81.703 33.5855 81.2053C33.8705 80.6987 34.2415 80.1829 34.6893 79.6401C35.5036 78.6313 36.2998 78.0477 37.0643 77.8622C37.8424 77.6813 38.702 77.9753 39.6429 78.7534L45.5104 83.5668C45.6913 82.7073 45.9989 81.8025 46.4242 80.8389C46.8494 79.8753 47.4647 78.9072 48.2609 77.9391V77.9391ZM51.7759 82.3951C51.138 83.1687 50.6902 83.9785 50.4187 84.838C50.1518 85.6839 49.9709 86.4892 49.8894 87.2266L60.6064 96.0164C61.1312 95.8309 61.76 95.5188 62.4929 95.0574C63.2212 94.605 63.9269 93.9716 64.61 93.1438C65.9174 91.5378 66.4422 89.8142 66.1708 87.964C65.8903 86.1137 64.6553 84.2861 62.4522 82.4856C60.2219 80.6489 58.2043 79.7939 56.3902 79.9115C54.5807 80.0291 53.038 80.857 51.7759 82.3951V82.3951Z" fill="#2F5088"/>
<path d="M79.1723 70.0948C80.7783 71.2077 82.3888 71.6374 84.0128 71.3932C85.6369 71.1398 87.2474 70.3572 88.8307 69.0272C90.025 68.0364 90.975 66.9371 91.6853 65.7429C92.3955 64.544 92.8932 63.4855 93.1827 62.5716C93.7708 62.4631 94.3634 62.5038 94.947 62.6938C95.5306 62.8702 96.0146 63.1914 96.3991 63.6393C96.8742 64.2093 97.1003 64.8743 97.0913 65.6388C97.0687 66.3988 96.8606 67.2131 96.4534 68.0726C96.0463 68.9457 95.4627 69.846 94.6936 70.7779C93.9336 71.7053 93.0198 72.601 91.9748 73.4786C90.301 74.8765 88.5819 75.926 86.8357 76.6227C85.0759 77.3149 83.3252 77.6134 81.579 77.5094C79.8328 77.4053 78.1138 76.9032 76.4218 76.003C74.7344 75.1027 73.1239 73.7456 71.613 71.9315C70.1382 70.1717 69.1249 68.4119 68.573 66.6657C68.0256 64.9059 67.8446 63.205 68.0346 61.5628C68.211 59.9071 68.7449 58.3599 69.6134 56.9213C70.473 55.4737 71.5813 54.1799 72.9475 53.0399C74.3318 51.8818 75.7975 51.0403 77.3221 50.502C78.8511 49.9727 80.3576 49.7556 81.8324 49.8461C83.3026 49.932 84.7321 50.3392 86.1119 51.0358C87.4917 51.737 88.7131 52.7232 89.7853 53.9989C90.4503 54.7951 90.7398 55.5597 90.6539 56.2971C90.577 57.039 90.215 57.7809 89.5726 58.5092L79.1723 70.0948ZM76.3268 57.0887C74.9335 58.2423 74.1599 59.6809 73.988 61.3819C73.8161 63.0828 74.3951 64.8336 75.7071 66.6341L83.9767 57.333C82.9814 56.383 81.8097 55.8085 80.4435 55.6275C79.0818 55.4375 77.7111 55.9306 76.3268 57.0887Z" fill="#2F5088"/>
<path d="M106.736 52.3795C107.351 53.3883 108.107 53.9176 108.985 53.99C109.871 54.0578 110.862 53.7457 111.961 53.0761C112.5 52.7459 113.011 52.3568 113.481 51.8909C113.956 51.4249 114.354 50.968 114.68 50.5156C115.087 50.6061 115.485 50.7871 115.879 51.0404C116.277 51.2983 116.616 51.6602 116.906 52.1307C117.485 53.0761 117.535 54.1211 117.06 55.2566C116.585 56.3876 115.404 57.5276 113.513 58.6812C111.025 60.2057 108.722 60.8391 106.609 60.5993C104.492 60.3595 102.642 58.9436 101.068 56.3605L87.8174 34.6731C88.0301 34.4605 88.3513 34.1619 88.7765 33.7638C89.2063 33.3702 89.7039 33.0038 90.2739 32.6555C91.3732 31.986 92.3187 31.6964 93.0832 31.7824C93.8523 31.8774 94.558 32.4429 95.1913 33.4833L97.5935 37.401L104.533 33.1576C104.845 33.316 105.184 33.5557 105.56 33.895C105.94 34.2253 106.27 34.6234 106.564 35.0984C107.057 35.9127 107.238 36.6319 107.089 37.2427C106.944 37.8534 106.555 38.3465 105.926 38.731L100.444 42.0787L106.736 52.3795V52.3795Z" fill="#2F5088"/>
<path d="M123.999 40.916C125.221 42.4451 126.646 43.3182 128.274 43.5308C129.898 43.757 131.654 43.4539 133.554 42.6351C134.983 42.0243 136.2 41.2417 137.222 40.2962C138.245 39.3507 139.027 38.4776 139.557 37.686C140.149 37.7448 140.701 37.9574 141.213 38.2967C141.724 38.636 142.104 39.0793 142.339 39.6222C142.628 40.2962 142.656 40.9974 142.425 41.7303C142.199 42.4496 141.764 43.1734 141.131 43.8882C140.493 44.6075 139.679 45.3041 138.684 45.9737C137.684 46.6477 136.562 47.2539 135.309 47.7968C133.305 48.6608 131.369 49.1765 129.487 49.3484C127.609 49.5204 125.845 49.3077 124.203 48.7106C122.552 48.1134 121.045 47.1408 119.684 45.8108C118.322 44.4672 117.168 42.7029 116.227 40.5405C115.318 38.4324 114.848 36.469 114.811 34.6278C114.784 32.7912 115.096 31.1083 115.739 29.5747C116.386 28.0502 117.322 26.7156 118.566 25.5756C119.801 24.4356 121.235 23.5128 122.864 22.8161C124.524 22.0923 126.166 21.6987 127.781 21.6173C129.396 21.5494 130.903 21.762 132.291 22.2687C133.667 22.7708 134.929 23.558 136.046 24.6166C137.177 25.6842 138.073 26.978 138.733 28.5071C139.141 29.4571 139.199 30.2669 138.914 30.9635C138.629 31.6466 138.077 32.2483 137.25 32.7685L123.999 40.916V40.916ZM124.958 27.6385C123.289 28.3668 122.135 29.5159 121.498 31.0992C120.855 32.6871 120.909 34.5283 121.656 36.6183L132.215 30.0542C131.536 28.8645 130.572 27.9823 129.324 27.4123C128.066 26.8423 126.614 26.9237 124.958 27.6385V27.6385Z" fill="#2F5088"/>
<path d="M168.776 29.6199C169.333 32.1397 168.84 34.3202 167.288 36.1569C165.741 38.0072 163.162 39.3326 159.552 40.1379C158.077 40.4727 156.711 40.6627 155.458 40.7169C154.209 40.7712 153.092 40.6853 152.11 40.4681C151.142 40.2555 150.346 39.9072 149.722 39.4186C149.102 38.9345 148.708 38.3283 148.546 37.609C148.396 36.9259 148.419 36.2971 148.613 35.7226C148.803 35.1481 149.12 34.6459 149.554 34.2116C150.703 34.6278 151.997 34.9445 153.418 35.1617C154.843 35.3607 156.422 35.2793 158.159 34.8947C159.634 34.56 160.692 34.0624 161.344 33.4154C161.986 32.755 162.212 31.995 162.022 31.1309C161.692 29.6516 160.394 28.9187 158.123 28.9459L154.942 28.9187C152.147 28.9052 149.962 28.4256 148.405 27.4847C146.858 26.5528 145.854 25.0508 145.388 23.0061C144.868 20.6627 145.379 18.5546 146.922 16.6682C148.469 14.7953 150.939 13.4743 154.314 12.7188C155.616 12.4248 156.833 12.2619 157.978 12.2076C159.122 12.1624 160.14 12.2348 161.036 12.4293C161.932 12.6284 162.655 12.936 163.23 13.3612C163.796 13.782 164.153 14.3339 164.311 15.017C164.451 15.6593 164.438 16.261 164.257 16.8174C164.076 17.3648 163.823 17.8263 163.492 18.2063C163.121 18.0615 162.646 17.9439 162.076 17.8444C161.511 17.7448 160.882 17.677 160.217 17.6363C159.543 17.5955 158.842 17.5956 158.114 17.6272C157.381 17.6589 156.679 17.7494 155.987 17.8987C154.585 18.2244 153.535 18.6903 152.848 19.3146C152.156 19.9434 151.902 20.6763 152.092 21.4951C152.228 22.1149 152.563 22.5673 153.11 22.8568C153.644 23.1599 154.494 23.3001 155.671 23.3046L158.466 23.3635C161.61 23.3725 163.995 23.8928 165.614 24.9106C167.247 25.924 168.292 27.4892 168.776 29.6199V29.6199Z" fill="#2F5088"/>
<path d="M203.632 8.79666C203.994 8.62023 204.515 8.45285 205.157 8.29904C205.804 8.14523 206.487 8.07285 207.188 8.08642C208.364 8.11356 209.332 8.30808 210.083 8.67451C210.834 9.03642 211.291 9.57476 211.463 10.276C211.979 12.0674 212.454 13.7141 212.893 15.2341C213.323 16.7632 213.748 18.2379 214.155 19.6675C214.576 21.097 214.965 22.5039 215.345 23.8973C215.729 25.2906 216.109 26.7247 216.48 28.2175H216.702C217.19 25.8697 217.643 23.5851 218.059 21.382C218.466 19.1698 218.882 16.9758 219.299 14.8088C219.706 12.6374 220.09 10.4433 220.443 8.2357C220.805 6.03258 221.171 3.74805 221.551 1.39112C222.524 0.893497 223.578 0.653729 224.723 0.680872C225.754 0.698968 226.627 0.952308 227.342 1.42731C228.048 1.90232 228.396 2.65327 228.378 3.68924C228.364 4.42662 228.242 5.52591 228.034 7.00521C227.817 8.47998 227.536 10.1357 227.188 11.9769C226.835 13.8181 226.424 15.7679 225.962 17.8489C225.501 19.9253 225.021 21.9475 224.519 23.9154C224.017 25.8742 223.515 27.7109 223.017 29.3937C222.524 31.0857 222.049 32.4609 221.588 33.524C221.135 33.8769 220.466 34.18 219.57 34.4288C218.688 34.6685 217.738 34.7726 216.738 34.7545C215.453 34.7319 214.354 34.5193 213.463 34.1076C212.562 33.7004 212.024 33.1892 211.852 32.5514C211.54 31.7054 211.201 30.6921 210.839 29.5159C210.468 28.3397 210.088 27.073 209.69 25.6978C209.292 24.327 208.889 22.8884 208.468 21.3865C208.061 19.8756 207.663 18.3465 207.288 16.7858C206.858 18.2967 206.41 19.8349 205.949 21.3911C205.501 22.9518 205.053 24.4537 204.619 25.9058C204.18 27.349 203.75 28.7106 203.325 29.9818C202.891 31.2395 202.497 32.3161 202.153 33.1983C201.737 33.524 201.113 33.8045 200.271 34.0443C199.443 34.2885 198.52 34.4016 197.521 34.379C196.277 34.3519 195.164 34.1393 194.218 33.7321C193.264 33.325 192.644 32.8047 192.359 32.1714C192.047 31.4249 191.699 30.3664 191.319 28.9911C190.939 27.6204 190.545 26.0506 190.133 24.2908C189.731 22.5265 189.319 20.631 188.921 18.5953C188.518 16.5551 188.134 14.5148 187.763 12.4972C187.396 10.475 187.057 8.5207 186.745 6.61164C186.433 4.70257 186.198 2.96994 186.048 1.41826C186.46 1.05183 187.003 0.726112 187.672 0.427538C188.342 0.12444 189.102 -0.020324 189.948 0.00229528C190.984 0.0158668 191.816 0.269206 192.449 0.762305C193.092 1.2554 193.485 2.04255 193.653 3.11923C194.146 6.19092 194.58 8.90523 194.938 11.2531C195.29 13.6055 195.63 15.7453 195.942 17.677C196.254 19.5996 196.557 21.382 196.838 23.0061C197.118 24.6392 197.408 26.2542 197.711 27.8466L197.987 27.8556C198.425 26.2723 198.846 24.7975 199.271 23.4494C199.683 22.0877 200.104 20.6898 200.538 19.2603C200.972 17.8263 201.438 16.2836 201.931 14.6053C202.425 12.9405 202.99 11.0043 203.632 8.79666V8.79666Z" fill="#2F5088"/>
<path d="M240.8 28.8193C240.805 30.769 241.361 32.3433 242.488 33.5286C243.619 34.7229 245.179 35.596 247.174 36.1388C248.667 36.546 250.106 36.7089 251.49 36.6139C252.879 36.5143 254.033 36.3243 254.951 36.0393C255.372 36.4555 255.675 36.9667 255.86 37.5503C256.041 38.1384 256.05 38.7129 255.892 39.2874C255.702 39.9977 255.286 40.5586 254.657 40.9794C254.014 41.4046 253.232 41.6896 252.291 41.8525C251.345 42.0153 250.273 42.047 249.074 41.9429C247.885 41.8479 246.618 41.6127 245.311 41.2463C243.202 40.6808 241.37 39.862 239.801 38.8215C238.235 37.772 236.991 36.5143 236.082 35.0124C235.173 33.5241 234.607 31.8231 234.381 29.9276C234.164 28.0276 234.363 25.9376 234.987 23.6575C235.598 21.4544 236.462 19.6268 237.584 18.1701C238.715 16.7225 240 15.6006 241.461 14.8225C242.926 14.0308 244.496 13.5829 246.17 13.4698C247.848 13.3613 249.54 13.5332 251.246 14.0127C252.992 14.4877 254.512 15.2025 255.819 16.157C257.131 17.1115 258.172 18.2154 258.932 19.473C259.696 20.7397 260.18 22.1375 260.389 23.6711C260.597 25.1956 260.484 26.7654 260.045 28.3714C259.773 29.3666 259.307 30.0407 258.651 30.3981C258.004 30.7555 257.19 30.8776 256.231 30.76L240.8 28.8193V28.8193ZM249.852 19.0749C248.111 18.5999 246.496 18.7808 244.994 19.6042C243.506 20.4456 242.393 21.9068 241.664 24.0014L254.001 25.4988C254.218 24.1416 254.019 22.8568 253.404 21.6354C252.779 20.4049 251.599 19.5544 249.852 19.0749V19.0749Z" fill="#2F5088"/>
<path d="M270.242 37.8216C269.948 39.7488 270.264 41.3864 271.205 42.7346C272.146 44.0827 273.562 45.1729 275.449 46.0234C276.865 46.6522 278.267 47.0232 279.66 47.1272C281.045 47.2448 282.207 47.2222 283.157 47.082C283.515 47.566 283.732 48.1134 283.831 48.7151C283.926 49.3258 283.858 49.8958 283.61 50.4387C283.311 51.1127 282.818 51.6149 282.13 51.9361C281.443 52.2527 280.619 52.4201 279.66 52.4427C278.701 52.4608 277.638 52.3296 276.466 52.0537C275.299 51.7777 274.078 51.357 272.838 50.8006C270.843 49.9184 269.151 48.8418 267.758 47.5751C266.356 46.3084 265.324 44.8562 264.646 43.2457C263.967 41.6307 263.655 39.8664 263.718 37.9528C263.782 36.0438 264.297 34.0035 265.256 31.8411C266.188 29.7556 267.319 28.0728 268.654 26.8106C269.984 25.5349 271.431 24.6256 272.988 24.0646C274.553 23.5037 276.172 23.3001 277.851 23.4403C279.534 23.5761 281.18 24.0058 282.8 24.7296C284.446 25.4625 285.853 26.3989 287.007 27.5344C288.152 28.679 289.011 29.923 289.581 31.2892C290.142 32.6509 290.418 34.1121 290.395 35.6547C290.373 37.2064 290.029 38.7355 289.35 40.2555C288.934 41.201 288.378 41.7981 287.672 42.0605C286.975 42.3138 286.157 42.3184 285.216 42.056L270.242 37.8216V37.8216ZM280.656 29.534C279.004 28.8011 277.376 28.7287 275.77 29.3349C274.168 29.9411 272.852 31.2214 271.82 33.1802L283.8 36.5143C284.216 35.2069 284.211 33.895 283.786 32.5966C283.356 31.2937 282.311 30.2759 280.656 29.534V29.534Z" fill="#2F5088"/>
<path d="M293.933 61.4089C293.621 61.2778 293.196 61.1013 292.68 60.8751C292.164 60.6489 291.612 60.3413 291.042 59.9387C289.975 59.2013 289.323 58.4594 289.079 57.7039C288.844 56.953 289.061 56.0753 289.762 55.0756L308.654 27.851C308.952 27.9279 309.368 28.0863 309.893 28.3396C310.418 28.5929 310.965 28.9187 311.54 29.3213C312.608 30.0542 313.259 30.8006 313.494 31.547C313.738 32.307 313.512 33.1847 312.825 34.1844L303.031 48.2943L317.955 45.6343C319.113 46.435 319.855 47.3353 320.199 48.335C320.533 49.3348 320.438 50.2305 319.886 51.0222C319.402 51.7189 318.764 52.1758 317.959 52.3839C317.163 52.592 316.023 52.7729 314.539 52.9086L306.645 53.7727L309.685 67.9504C308.83 68.9366 307.943 69.5383 307.007 69.7735C306.084 70.0088 305.13 69.7916 304.166 69.1131C303.469 68.6245 302.963 68.0319 302.673 67.3352C302.37 66.634 302.135 65.589 301.963 64.2092L300.411 52.0717L293.933 61.4089V61.4089Z" fill="#2F5088"/>
<path d="M321.723 69.6742C320.841 71.4159 320.642 73.0851 321.112 74.6504C321.583 76.2247 322.587 77.704 324.121 79.0883C325.265 80.1288 326.482 80.9205 327.771 81.4543C329.047 81.9926 330.169 82.3409 331.11 82.4993C331.3 83.0693 331.345 83.6529 331.25 84.2636C331.142 84.8743 330.897 85.3946 330.504 85.8288C330.002 86.3807 329.373 86.6974 328.626 86.7879C327.871 86.8784 327.039 86.7834 326.12 86.5029C325.206 86.2179 324.234 85.761 323.211 85.1367C322.18 84.5034 321.158 83.7388 320.153 82.825C318.534 81.3593 317.253 79.8076 316.326 78.1609C315.39 76.5233 314.856 74.8314 314.716 73.0852C314.58 71.3389 314.833 69.5746 315.489 67.7696C316.141 65.9737 317.263 64.1958 318.846 62.4496C320.384 60.7441 321.981 59.5046 323.646 58.7129C325.301 57.9257 326.962 57.505 328.626 57.4643C330.287 57.4191 331.884 57.7222 333.435 58.3736C334.982 59.0341 336.421 59.957 337.733 61.1467C339.072 62.3501 340.117 63.6846 340.85 65.1277C341.592 66.5618 342.022 68.0184 342.135 69.4977C342.248 70.9635 342.049 72.4337 341.551 73.8949C341.049 75.3607 340.235 76.7042 339.131 77.9438C338.434 78.7083 337.719 79.1019 336.968 79.1245C336.222 79.1516 335.444 78.8983 334.634 78.36L321.723 69.6742V69.6742ZM334.2 65.0463C332.861 63.8384 331.332 63.2684 329.622 63.3363C327.916 63.4086 326.26 64.2139 324.668 65.761L335.014 72.6599C335.824 71.5425 336.222 70.303 336.222 68.9277C336.217 67.557 335.543 66.2632 334.2 65.0463V65.0463Z" fill="#2F5088"/>
<path d="M356.082 98.0747C357.357 97.1247 358.018 96.0661 358.072 94.8945C358.122 93.7318 357.688 92.524 356.756 91.2799C356.127 90.4159 355.426 89.7011 354.675 89.1356C353.933 88.5656 353.191 88.1313 352.467 87.8373L336.38 99.8209C336.123 99.5993 335.788 99.2962 335.358 98.9207C334.942 98.5452 334.521 98.0657 334.105 97.5047C333.331 96.4643 332.956 95.5549 332.956 94.7678C332.974 93.9761 333.467 93.2161 334.44 92.4878L348.717 81.8658C349.423 81.3365 350.115 81.056 350.78 81.0153C351.445 80.9791 352.209 81.1239 353.091 81.4315C354.322 81.8477 355.666 82.6258 357.136 83.7522C358.588 84.8787 359.959 86.2946 361.243 88.0092C363.51 91.0628 364.596 93.9309 364.492 96.609C364.392 99.2871 363.039 101.594 360.429 103.544L346.745 113.736C346.5 113.542 346.165 113.252 345.74 112.854C345.31 112.461 344.894 112.004 344.501 111.47C343.7 110.402 343.315 109.479 343.338 108.706C343.361 107.928 343.854 107.177 344.835 106.444L356.082 98.0747V98.0747Z" fill="#2F5088"/>
<path d="M364.623 139.88C363.854 140.242 363.162 140.364 362.533 140.255C361.904 140.138 361.221 139.853 360.47 139.382C359.547 138.803 358.529 137.934 357.439 136.776C356.344 135.623 355.371 134.139 354.516 132.338C352.635 128.326 352.155 124.662 353.11 121.341C354.05 118.016 356.643 115.36 360.886 113.356C363.094 112.325 365.134 111.746 367.016 111.633C368.907 111.515 370.617 111.76 372.168 112.357C373.716 112.958 375.082 113.877 376.276 115.103C377.47 116.338 378.47 117.803 379.271 119.509C379.696 120.414 380.004 121.309 380.203 122.196C380.397 123.083 380.51 123.906 380.538 124.671L389.608 120.391C389.83 120.613 390.106 120.966 390.445 121.445C390.766 121.925 391.074 122.458 391.35 123.069C391.915 124.268 392.114 125.245 391.938 126.005C391.766 126.752 391.128 127.389 390.02 127.91L364.623 139.88V139.88ZM375.426 127.073C375.489 126.435 375.471 125.734 375.358 124.969C375.236 124.205 375.005 123.436 374.643 122.671C373.761 120.807 372.426 119.536 370.644 118.862C368.857 118.197 366.595 118.505 363.858 119.794C361.28 121.011 359.687 122.481 359.054 124.232C358.43 125.978 358.601 127.86 359.556 129.896C359.963 130.764 360.42 131.465 360.909 131.99C361.397 132.51 361.881 132.931 362.352 133.239L375.426 127.073V127.073Z" fill="#2F5088"/>
<path fill-rule="evenodd" clip-rule="evenodd" d="M106.193 217.346C83.1759 198.92 53.5266 189.226 17.3992 193.637C4.47002 195.215 2.56548 201.02 16.6392 202.625C53.5357 206.833 81.1764 217.631 103.049 238.463C146.401 279.748 167.69 291.8 184.044 260.336C195.874 237.568 207.989 234.781 217.611 244.96C248.247 277.359 271.811 275.432 294.494 235.107C307.183 212.542 331.223 194.008 366.401 178.907C370.762 175.695 370.504 174.36 364.614 175.333C325.686 179.486 296.959 188.276 284.537 207.276C265.912 235.767 243.139 240.707 220.434 220.703C207.482 209.298 194.304 210.75 179.285 221.354C151.391 241.047 128.491 235.202 106.193 217.346V217.346Z" fill="#F5ED59" stroke="#F5ED59" stroke-width="0.89947" stroke-miterlimit="22.9256"/>
</svg>
