<svg width="29" height="20" viewBox="0 0 29 20" fill="none" xmlns="http://www.w3.org/2000/svg">
<path d="M26.38 0.173828H2.60931C2.08394 0.173828 1.5801 0.382528 1.20861 0.754017C0.837118 1.12551 0.628418 1.62935 0.628418 2.15472V18.0018C0.628418 18.5272 0.837118 19.031 1.20861 19.4025C1.5801 19.774 2.08394 19.9827 2.60931 19.9827H26.38C26.9053 19.9827 27.4092 19.774 27.7807 19.4025C28.1521 19.031 28.3608 18.5272 28.3608 18.0018V2.15472C28.3608 1.62935 28.1521 1.12551 27.7807 0.754017C27.4092 0.382528 26.9053 0.173828 26.38 0.173828ZM24.201 2.15472L14.4946 8.86993L4.78828 2.15472H24.201ZM2.60931 18.0018V3.05602L13.9301 10.8904C14.0959 11.0054 14.2928 11.0671 14.4946 11.0671C14.6964 11.0671 14.8934 11.0054 15.0592 10.8904L26.38 3.05602V18.0018H2.60931Z" fill="#2F5088"/>
</svg>
