<svg width="165" height="153" viewBox="0 0 165 153" fill="none" xmlns="http://www.w3.org/2000/svg">
<path d="M85.0995 153C121.509 153 151.025 123.484 151.025 87.0746C151.025 50.6648 121.509 21.1489 85.0995 21.1489C48.6898 21.1489 19.1739 50.6648 19.1739 87.0746C19.1739 123.484 48.6898 153 85.0995 153Z" fill="#2F5088"/>
<path d="M80.7268 84.8073C88.0012 84.8073 93.8982 79.1361 93.8982 72.1403C93.8982 65.1446 88.0012 59.4734 80.7268 59.4734C73.4524 59.4734 67.5554 65.1446 67.5554 72.1403C67.5554 79.1361 73.4524 84.8073 80.7268 84.8073Z" fill="#F5ED59"/>
<path fill-rule="evenodd" clip-rule="evenodd" d="M44.6867 93.2841C35.0009 85.5286 22.5243 81.449 7.32167 83.3051C1.88101 83.9695 1.07957 86.4119 7.00186 87.0877C22.5281 88.8581 34.1595 93.4021 43.3637 102.168C61.6064 119.543 70.5651 124.615 77.4468 111.373C82.4249 101.792 87.5229 100.619 91.572 104.902C104.464 118.538 114.38 117.727 123.925 100.756C129.264 91.2624 139.38 83.4612 154.183 77.1068C156.018 75.7552 155.91 75.1936 153.431 75.6048C137.05 77.3524 124.962 81.0493 119.735 89.0465C111.897 101.034 102.314 103.113 92.7598 94.6966C87.3097 89.8956 81.7643 90.5066 75.4441 94.9707C63.7062 103.257 54.0698 100.798 44.6867 93.2841Z" fill="#2F5088" stroke="#2F5088" stroke-width="0.630111" stroke-miterlimit="22.9256"/>
<path d="M8.38773 64.6074C7.56344 64.457 6.82482 64.4417 6.17948 64.5617C5.53414 64.6797 4.98018 64.9062 4.51568 65.2394C4.05119 65.5725 3.67427 66.0027 3.3811 66.5243C3.08794 67.0479 2.88234 67.6361 2.76241 68.2928C2.69769 68.6469 2.64819 68.9667 2.61964 69.2504C2.58918 69.5378 2.56634 69.8139 2.55491 70.0785L11.9723 71.8051C12.0808 71.5557 12.176 71.2721 12.2598 70.9447C12.3435 70.621 12.4159 70.2993 12.473 69.9795C12.7357 68.5556 12.5244 67.3791 11.841 66.4501C11.1556 65.5211 10.0058 64.9062 8.38773 64.6074ZM8.92266 61.5577C10.16 61.7823 11.207 62.1593 12.0656 62.6904C12.9261 63.2177 13.5961 63.8668 14.0816 64.634C14.5651 65.4012 14.8735 66.2731 15.0106 67.2573C15.1476 68.2338 15.1115 69.2923 14.904 70.4249C14.8545 70.6819 14.8012 70.9656 14.7364 71.2683C14.6736 71.5729 14.5937 71.8889 14.4947 72.2068C14.3957 72.5304 14.2891 72.8483 14.1653 73.1643C14.0435 73.4841 13.9045 73.7773 13.7427 74.0495C13.3353 74.731 12.808 75.0147 12.1646 74.8966L0.932995 72.8388C0.656964 72.7893 0.457081 72.6751 0.333343 72.4923C0.207702 72.3115 0.123941 72.0735 0.0839645 71.7823C-0.0131221 71.1807 -0.0245443 70.543 0.0420838 69.871C0.112519 69.1933 0.201992 68.5594 0.310501 67.9654C0.517999 66.8175 0.86256 65.7933 1.33467 64.8929C1.80868 63.9925 2.40262 63.2615 3.1222 62.698C3.84179 62.1345 4.68701 61.7481 5.65788 61.5368C6.62875 61.3293 7.71573 61.335 8.92266 61.5577Z" fill="#2F5088"/>
<path d="M7.11036 56.1114C7.1313 55.9839 7.16747 55.8011 7.21506 55.5594C7.26265 55.3195 7.3407 55.0701 7.45112 54.8112C7.66433 54.2953 7.91371 53.9584 8.19925 53.7966C8.4829 53.6386 8.86554 53.6557 9.33764 53.8575L18.3343 57.6001C18.3153 57.7276 18.2829 57.9104 18.2315 58.1502C18.184 58.392 18.104 58.6395 17.9993 58.9003C17.7804 59.4162 17.531 59.7531 17.2454 59.9092C16.9618 60.0729 16.5811 60.052 16.1071 59.854L7.11036 56.1114ZM3.90079 55.0244C3.48389 54.8531 3.18882 54.5599 3.0194 54.143C2.84807 53.7261 2.85759 53.2864 3.04605 52.8295C3.24022 52.3669 3.5391 52.0585 3.956 51.8929C4.371 51.7292 4.78599 51.7311 5.20099 51.9043C5.63122 52.0852 5.932 52.3783 6.10904 52.7876C6.28227 53.2007 6.27656 53.6309 6.08239 54.0916C5.89012 54.5504 5.58934 54.8683 5.17244 55.0359C4.75554 55.2091 4.33292 55.2072 3.90079 55.0244Z" fill="#2F5088"/>
<path d="M19.8687 50.1625C20.0838 49.7665 20.2437 49.382 20.3446 49.0146C20.4474 48.6453 20.4836 48.3559 20.4531 48.1484L18.1782 46.9167L17.2873 49.0051C17.0494 49.5857 16.9428 50.0654 16.9713 50.4556C17.0018 50.8402 17.215 51.1391 17.611 51.3542C18.0069 51.5693 18.3953 51.5864 18.7722 51.4113C19.1491 51.2342 19.5165 50.8192 19.8687 50.1625ZM11.4774 45.7422C12.1988 44.3982 13.065 43.4844 14.0682 42.9933C15.0753 42.5022 16.1794 42.5821 17.3825 43.2332L22.1226 45.7879C22.452 45.9668 22.669 46.1895 22.7699 46.4542C22.8746 46.7226 22.9355 47.0234 22.9507 47.3489C22.9755 47.8591 22.9012 48.4416 22.7185 49.106C22.5395 49.7646 22.2464 50.4728 21.839 51.2247C21.1023 52.5916 20.2551 53.5301 19.3071 54.0288C18.3572 54.5314 17.354 54.5028 16.2993 53.9317C15.3837 53.4349 14.8392 52.7686 14.6679 51.9272C14.4947 51.082 14.6527 50.0768 15.1419 48.9118L16.3698 45.9459L16.0005 45.746C15.4808 45.4643 14.9991 45.449 14.548 45.687C14.1006 45.9306 13.6913 46.397 13.322 47.0805C13.0346 47.6154 12.8194 48.1675 12.6748 48.7462C12.532 49.3211 12.4482 49.8598 12.4292 50.3586C12.2388 50.4499 12.0199 50.4975 11.78 50.4994C11.5421 50.5032 11.3136 50.4442 11.0909 50.3281C10.8206 50.1796 10.6302 49.995 10.5293 49.7741C10.4284 49.5514 10.3866 49.2621 10.4075 48.8985C10.4551 48.413 10.5769 47.8971 10.7692 47.3451C10.9596 46.7949 11.1956 46.2581 11.4774 45.7422Z" fill="#2F5088"/>
<path d="M20.3085 32.7975C20.7844 32.2207 21.3174 31.76 21.9133 31.4154C22.5091 31.067 23.1468 30.8633 23.8321 30.8024C24.5156 30.7377 25.2218 30.8329 25.9566 31.0804C26.6857 31.3278 27.432 31.7657 28.1877 32.3844C28.9473 33.005 29.5165 33.656 29.9048 34.3375C30.2951 35.0133 30.5178 35.7101 30.5749 36.422C30.6339 37.1378 30.533 37.8517 30.2646 38.5675C29.9981 39.2851 29.585 39.9838 29.0234 40.6691C28.4504 41.3677 27.8698 41.9065 27.2778 42.2853C26.6857 42.6641 26.1375 42.9268 25.6311 43.0772C25.258 43.1895 24.9191 43.2276 24.6241 43.1838C24.3252 43.1439 24.0415 43.0068 23.7617 42.7803L13.8817 34.6764C13.9255 34.5469 14.0074 34.3813 14.133 34.1719C14.2529 33.9587 14.409 33.7417 14.5975 33.5132C14.9402 33.0887 15.2752 32.8431 15.5969 32.7651C15.9243 32.689 16.286 32.8127 16.682 33.1401L19.151 35.1656C19.2272 34.8039 19.3566 34.4232 19.5356 34.0177C19.7145 33.6122 19.9734 33.2048 20.3085 32.7975ZM21.7876 34.6726C21.5192 34.9981 21.3307 35.3389 21.2165 35.7005C21.1042 36.0565 21.0281 36.3954 20.9938 36.7057L25.5036 40.4045C25.7244 40.3264 25.989 40.1951 26.2974 40.0009C26.6039 39.8105 26.9008 39.544 27.1883 39.1957C27.7385 38.5199 27.9593 37.7946 27.8451 37.016C27.727 36.2374 27.2073 35.4683 26.2803 34.7106C25.3417 33.9378 24.4927 33.578 23.7293 33.6275C22.9679 33.677 22.3187 34.0253 21.7876 34.6726Z" fill="#2F5088"/>
<path d="M33.3162 29.4962C33.992 29.9645 34.6697 30.1454 35.3531 30.0426C36.0365 29.936 36.7142 29.6066 37.3805 29.047C37.883 28.63 38.2828 28.1675 38.5817 27.6649C38.8806 27.1604 39.09 26.715 39.2118 26.3304C39.4593 26.2847 39.7086 26.3019 39.9542 26.3818C40.1998 26.4561 40.4035 26.5912 40.5653 26.7797C40.7652 27.0196 40.8604 27.2994 40.8566 27.6211C40.847 27.9409 40.7595 28.2836 40.5881 28.6453C40.4168 29.0127 40.1712 29.3915 39.8476 29.7837C39.5278 30.1739 39.1433 30.5508 38.7035 30.9202C37.9992 31.5084 37.2758 31.95 36.541 32.2432C35.8004 32.5345 35.0637 32.6601 34.3289 32.6163C33.5941 32.5725 32.8707 32.3612 32.1587 31.9824C31.4487 31.6036 30.771 31.0325 30.1351 30.2691C29.5146 29.5286 29.0881 28.7881 28.8559 28.0532C28.6255 27.3127 28.5494 26.5969 28.6293 25.9059C28.7036 25.2092 28.9282 24.5581 29.2937 23.9528C29.6554 23.3436 30.1218 22.7991 30.6967 22.3194C31.2792 21.8321 31.896 21.478 32.5376 21.2515C33.181 21.0287 33.8149 20.9374 34.4355 20.9754C35.0542 21.0116 35.6558 21.1829 36.2364 21.4761C36.817 21.7712 37.331 22.1862 37.7821 22.723C38.062 23.058 38.1838 23.3798 38.1476 23.6901C38.1153 24.0023 37.963 24.3145 37.6927 24.6209L33.3162 29.4962ZM32.1188 24.0232C31.5324 24.5086 31.2069 25.114 31.1346 25.8298C31.0622 26.5455 31.3059 27.2823 31.858 28.0399L35.3378 24.126C34.919 23.7262 34.426 23.4845 33.8511 23.4083C33.2781 23.3284 32.7013 23.5359 32.1188 24.0232Z" fill="#2F5088"/>
<path d="M44.9151 22.0415C45.174 22.466 45.492 22.6887 45.8613 22.7192C46.2344 22.7477 46.6513 22.6164 47.1139 22.3346C47.3404 22.1957 47.5555 22.032 47.7535 21.8359C47.9534 21.6398 48.1209 21.4475 48.258 21.2572C48.4293 21.2953 48.5968 21.3714 48.7624 21.478C48.93 21.5865 49.0727 21.7388 49.1946 21.9368C49.4382 22.3347 49.4592 22.7744 49.2593 23.2522C49.0594 23.7281 48.5626 24.2079 47.7668 24.6933C46.7198 25.3348 45.7508 25.6013 44.8618 25.5004C43.9709 25.3995 43.1923 24.8037 42.5299 23.7167L36.954 14.5906C37.0435 14.5011 37.1787 14.3754 37.3576 14.2079C37.5385 14.0423 37.7479 13.8881 37.9877 13.7415C38.4503 13.4598 38.8482 13.338 39.1699 13.3741C39.4935 13.4141 39.7905 13.6521 40.057 14.0899L41.0678 15.7385L43.9881 13.9528C44.1194 14.0195 44.2622 14.1204 44.4202 14.2631C44.5801 14.4021 44.7191 14.5696 44.8428 14.7695C45.0503 15.1122 45.1264 15.4148 45.0636 15.6718C45.0027 15.9288 44.839 16.1363 44.5744 16.2981L42.2672 17.7069L44.9151 22.0415Z" fill="#2F5088"/>
<path d="M52.1795 17.2177C52.6935 17.8612 53.2931 18.2286 53.9784 18.3181C54.6619 18.4132 55.4005 18.2857 56.2 17.9411C56.8016 17.6841 57.3137 17.3548 57.7439 16.9569C58.1741 16.5591 58.5034 16.1917 58.7262 15.8585C58.9756 15.8833 59.2078 15.9727 59.4229 16.1155C59.638 16.2583 59.7979 16.4448 59.8969 16.6733C60.0188 16.9569 60.0302 17.252 59.9331 17.5604C59.8379 17.8631 59.6552 18.1677 59.3886 18.4684C59.1202 18.7711 58.7776 19.0643 58.3588 19.346C57.9381 19.6297 57.466 19.8848 56.9386 20.1132C56.0953 20.4768 55.2806 20.6938 54.4886 20.7662C53.6986 20.8385 52.9562 20.749 52.2652 20.4977C51.5703 20.2465 50.9364 19.8372 50.3634 19.2775C49.7904 18.7121 49.305 17.9697 48.909 17.0597C48.5264 16.1726 48.3284 15.3464 48.3132 14.5716C48.3017 13.7988 48.4331 13.0906 48.7034 12.4453C48.9756 11.8037 49.3697 11.2421 49.8932 10.7624C50.4129 10.2827 51.0164 9.89436 51.7017 9.60119C52.4003 9.29661 53.0913 9.13099 53.7709 9.09672C54.4506 9.06817 55.0845 9.15764 55.6689 9.37085C56.2476 9.58216 56.7787 9.91339 57.2489 10.3589C57.7248 10.8081 58.1018 11.3526 58.3797 11.996C58.551 12.3958 58.5758 12.7365 58.4559 13.0297C58.3359 13.3171 58.1037 13.5703 57.7553 13.7892L52.1795 17.2177ZM52.5831 11.6305C51.8806 11.937 51.3952 12.4205 51.1268 13.0868C50.8564 13.755 50.8793 14.5298 51.1934 15.4093L55.6365 12.647C55.351 12.1464 54.9455 11.7752 54.4201 11.5353C53.8909 11.2955 53.2798 11.3297 52.5831 11.6305Z" fill="#2F5088"/>
<path d="M71.0219 12.4643C71.2561 13.5246 71.0486 14.4422 70.3956 15.215C69.7446 15.9936 68.6595 16.5514 67.1404 16.8903C66.5198 17.0311 65.9449 17.1111 65.4176 17.1339C64.8922 17.1568 64.4219 17.1206 64.0088 17.0292C63.6015 16.9398 63.2664 16.7932 63.0037 16.5876C62.7429 16.3839 62.5773 16.1288 62.5088 15.8261C62.4459 15.5387 62.4555 15.2741 62.5373 15.0323C62.6173 14.7905 62.7505 14.5792 62.9333 14.3965C63.4168 14.5716 63.9613 14.7049 64.559 14.7962C65.1587 14.88 65.823 14.8457 66.554 14.6839C67.1746 14.5431 67.6201 14.3337 67.8942 14.0614C68.1645 13.7835 68.2597 13.4637 68.1798 13.1001C68.0408 12.4776 67.4945 12.1692 66.5388 12.1806L65.2005 12.1692C64.0241 12.1635 63.1046 11.9617 62.4498 11.5657C61.7987 11.1736 61.3761 10.5416 61.18 9.6811C60.9611 8.69501 61.1762 7.80791 61.8254 7.01408C62.4764 6.22597 63.5158 5.67009 64.9359 5.35218C65.4842 5.22845 65.9963 5.15991 66.4779 5.13707C66.9595 5.11803 67.3879 5.1485 67.7648 5.23035C68.1417 5.31411 68.4463 5.44356 68.688 5.62251C68.926 5.79955 69.0764 6.03179 69.143 6.31925C69.202 6.58957 69.1963 6.84275 69.1202 7.0769C69.044 7.30724 68.9374 7.50142 68.7985 7.66132C68.6424 7.60041 68.4425 7.55091 68.2026 7.50903C67.9647 7.46715 67.7001 7.43859 67.4202 7.42146C67.1366 7.40433 66.8415 7.40433 66.535 7.41766C66.2266 7.43098 65.9315 7.46906 65.6403 7.53188C65.0502 7.66894 64.6085 7.86502 64.3191 8.12772C64.0279 8.39233 63.9213 8.70072 64.0012 9.04528C64.0583 9.30608 64.1992 9.49645 64.4296 9.61829C64.6542 9.74583 65.0121 9.80484 65.507 9.80675L66.6835 9.8315C68.0065 9.8353 69.0098 10.0542 69.6913 10.4825C70.3785 10.909 70.8182 11.5676 71.0219 12.4643Z" fill="#2F5088"/>
<path d="M85.6897 3.70168C85.8419 3.62744 86.0609 3.557 86.3312 3.49228C86.6034 3.42756 86.8909 3.3971 87.1859 3.40281C87.6809 3.41423 88.0883 3.49608 88.4043 3.65028C88.7203 3.80257 88.9125 4.02911 88.9849 4.32418C89.2019 5.07803 89.4018 5.77096 89.5865 6.41059C89.7673 7.05402 89.9462 7.67462 90.1176 8.27618C90.2946 8.87773 90.4583 9.46977 90.6182 10.0561C90.78 10.6424 90.94 11.2459 91.0961 11.8741H91.1893C91.3949 10.8861 91.5853 9.92474 91.7604 8.99766C91.9318 8.06677 92.1069 7.1435 92.282 6.23164C92.4534 5.31789 92.6152 4.39461 92.7637 3.46563C92.916 2.53854 93.0701 1.5772 93.23 0.585391C93.6393 0.375988 94.0829 0.275093 94.5645 0.286515C94.9985 0.294129 95.366 0.400736 95.6667 0.60062C95.9637 0.800505 96.1103 1.11651 96.1027 1.55245C96.097 1.86275 96.0456 2.32533 95.958 2.94783C95.8666 3.56842 95.7486 4.26517 95.602 5.03996C95.4535 5.81475 95.2803 6.63522 95.0861 7.5109C94.8919 8.38468 94.6902 9.23562 94.4788 10.0637C94.2675 10.888 94.0562 11.6609 93.8468 12.369C93.6393 13.081 93.4395 13.6597 93.2453 14.1071C93.0549 14.2556 92.7732 14.3831 92.3962 14.4878C92.025 14.5887 91.6253 14.6325 91.2046 14.6249C90.6639 14.6154 90.2013 14.5259 89.8263 14.3527C89.4475 14.1813 89.2209 13.9662 89.1486 13.6978C89.0172 13.3418 88.8745 12.9154 88.7222 12.4204C88.5661 11.9255 88.4062 11.3925 88.2387 10.8138C88.0711 10.2369 87.9017 9.63158 87.7247 8.99957C87.5533 8.36374 87.3858 7.7203 87.2278 7.06354C87.047 7.69936 86.8585 8.34661 86.6643 9.00147C86.4759 9.65823 86.2874 10.2902 86.1047 10.9013C85.92 11.5086 85.7392 12.0816 85.5602 12.6165C85.3775 13.1457 85.2118 13.5988 85.0672 13.97C84.892 14.1071 84.6293 14.2251 84.2752 14.326C83.9269 14.4288 83.5385 14.4764 83.1178 14.4669C82.5943 14.4555 82.126 14.366 81.7281 14.1947C81.3265 14.0233 81.0657 13.8044 80.9457 13.5379C80.8144 13.2238 80.6678 12.7783 80.5079 12.1996C80.348 11.6228 80.1824 10.9622 80.0091 10.2217C79.8397 9.47929 79.6665 8.68165 79.4989 7.82501C79.3295 6.96645 79.1677 6.10791 79.0116 5.25888C78.8574 4.40794 78.7146 3.58556 78.5833 2.78221C78.4519 1.97887 78.353 1.24977 78.2901 0.596812C78.4634 0.442616 78.6918 0.305552 78.9735 0.17991C79.2553 0.0523651 79.5751 -0.00855243 79.9311 0.000965864C80.367 0.00667684 80.7173 0.113283 80.9838 0.320782C81.2541 0.528281 81.4197 0.859516 81.4902 1.31259C81.6977 2.60517 81.8804 3.74737 82.0308 4.73537C82.1793 5.72527 82.3221 6.6257 82.4534 7.43856C82.5848 8.24762 82.7123 8.99766 82.8304 9.68107C82.9484 10.3683 83.0702 11.0479 83.1978 11.718L83.3139 11.7218C83.4985 11.0555 83.6756 10.4349 83.8545 9.86763C84.0278 9.29463 84.2048 8.7064 84.3876 8.10484C84.5703 7.50138 84.7664 6.85224 84.9739 6.14598C85.1814 5.44544 85.4193 4.63067 85.6897 3.70168Z" fill="#2F5088"/>
<path d="M101.33 12.1271C101.332 12.9476 101.566 13.61 102.04 14.1088C102.516 14.6114 103.173 14.9788 104.012 15.2072C104.641 15.3785 105.246 15.4471 105.828 15.4071C106.413 15.3652 106.898 15.2853 107.285 15.1653C107.462 15.3405 107.589 15.5556 107.667 15.8012C107.744 16.0486 107.747 16.2904 107.681 16.5322C107.601 16.831 107.426 17.0671 107.161 17.2441C106.891 17.4231 106.561 17.543 106.165 17.6115C105.768 17.6801 105.316 17.6934 104.812 17.6496C104.311 17.6096 103.778 17.5106 103.228 17.3564C102.341 17.1185 101.57 16.7739 100.909 16.3361C100.251 15.8944 99.7272 15.3652 99.3446 14.7332C98.962 14.1069 98.724 13.3911 98.6288 12.5935C98.5375 11.7939 98.6212 10.9145 98.8839 9.95501C99.1409 9.02792 99.5045 8.25885 99.9766 7.64587C100.453 7.0367 100.993 6.56459 101.608 6.23716C102.225 5.90402 102.885 5.71556 103.59 5.66797C104.296 5.62228 105.008 5.69462 105.726 5.89641C106.46 6.09629 107.1 6.39707 107.65 6.79874C108.202 7.20041 108.64 7.6649 108.96 8.19412C109.282 8.72715 109.485 9.31538 109.573 9.96072C109.661 10.6023 109.613 11.2628 109.428 11.9386C109.314 12.3574 109.118 12.6411 108.842 12.7915C108.57 12.9419 108.227 12.9933 107.824 12.9438L101.33 12.1271ZM105.139 8.0266C104.406 7.82672 103.727 7.90286 103.095 8.24933C102.469 8.60341 102 9.21829 101.694 10.0997L106.885 10.7298C106.976 10.1587 106.893 9.61806 106.634 9.10407C106.371 8.58628 105.874 8.22839 105.139 8.0266Z" fill="#2F5088"/>
<path d="M113.719 15.9157C113.595 16.7266 113.729 17.4158 114.125 17.9831C114.521 18.5504 115.116 19.0091 115.91 19.367C116.506 19.6316 117.096 19.7877 117.683 19.8315C118.265 19.881 118.754 19.8715 119.154 19.8125C119.304 20.0162 119.396 20.2465 119.438 20.4997C119.478 20.7567 119.449 20.9966 119.344 21.225C119.219 21.5086 119.011 21.7199 118.722 21.8551C118.433 21.9884 118.086 22.0588 117.683 22.0683C117.279 22.0759 116.832 22.0207 116.339 21.9046C115.847 21.7885 115.333 21.6114 114.812 21.3773C113.972 21.0061 113.26 20.553 112.674 20.02C112.084 19.487 111.65 18.8759 111.364 18.1982C111.079 17.5186 110.947 16.7761 110.974 15.9709C111.001 15.1675 111.218 14.309 111.621 13.399C112.013 12.5215 112.489 11.8133 113.051 11.2822C113.611 10.7453 114.22 10.3627 114.875 10.1267C115.533 9.8906 116.215 9.80494 116.921 9.86395C117.629 9.92106 118.322 10.1019 119.004 10.4065C119.697 10.7149 120.289 11.1089 120.774 11.5868C121.256 12.0684 121.617 12.5919 121.857 13.1668C122.093 13.7398 122.209 14.3547 122.2 15.0038C122.19 15.6568 122.046 16.3002 121.76 16.9399C121.585 17.3377 121.351 17.589 121.054 17.6994C120.761 17.806 120.416 17.8079 120.02 17.6975L113.719 15.9157ZM118.101 12.4282C117.407 12.1198 116.721 12.0893 116.045 12.3444C115.372 12.5995 114.818 13.1382 114.383 13.9625L119.424 15.3655C119.6 14.8154 119.598 14.2633 119.419 13.717C119.238 13.1687 118.798 12.7404 118.101 12.4282Z" fill="#2F5088"/>
<path d="M123.689 25.8413C123.557 25.7861 123.378 25.7119 123.161 25.6167C122.944 25.5215 122.712 25.3921 122.472 25.2226C122.023 24.9123 121.749 24.6001 121.646 24.2822C121.547 23.9662 121.638 23.5969 121.933 23.1762L129.883 11.72C130.009 11.7523 130.184 11.819 130.405 11.9256C130.626 12.0322 130.856 12.1692 131.098 12.3387C131.547 12.6471 131.821 12.9612 131.92 13.2753C132.023 13.5951 131.928 13.9644 131.638 14.3851L127.517 20.3226L133.797 19.2033C134.284 19.5402 134.597 19.919 134.741 20.3397C134.882 20.7605 134.842 21.1374 134.61 21.4705C134.406 21.7637 134.138 21.9559 133.799 22.0435C133.464 22.1311 132.984 22.2072 132.36 22.2643L129.038 22.6279L130.317 28.594C129.957 29.009 129.584 29.2622 129.19 29.3612C128.802 29.4602 128.4 29.3688 127.995 29.0833C127.702 28.8777 127.488 28.6283 127.366 28.3351C127.239 28.04 127.14 27.6003 127.068 27.0197L126.415 21.9122L123.689 25.8413Z" fill="#2F5088"/>
<path d="M135.383 29.3193C135.012 30.0522 134.928 30.7546 135.126 31.4133C135.324 32.0758 135.746 32.6983 136.392 33.2808C136.873 33.7186 137.385 34.0518 137.928 34.2764C138.465 34.5029 138.937 34.6495 139.333 34.7161C139.413 34.956 139.432 35.2016 139.392 35.4586C139.346 35.7156 139.243 35.9345 139.078 36.1172C138.866 36.3495 138.602 36.4827 138.288 36.5208C137.97 36.5589 137.62 36.5189 137.233 36.4009C136.849 36.281 136.439 36.0887 136.009 35.826C135.575 35.5595 135.145 35.2378 134.722 34.8532C134.041 34.2364 133.502 33.5835 133.112 32.8905C132.718 32.2014 132.493 31.4894 132.434 30.7546C132.377 30.0198 132.484 29.2774 132.76 28.5178C133.034 27.7621 133.506 27.0139 134.172 26.2791C134.819 25.5614 135.491 25.0398 136.192 24.7067C136.889 24.3755 137.587 24.1984 138.288 24.1813C138.986 24.1623 139.658 24.2898 140.311 24.5639C140.962 24.8419 141.568 25.2302 142.12 25.7309C142.683 26.2373 143.123 26.7988 143.431 27.4061C143.744 28.0096 143.925 28.6225 143.972 29.245C144.02 29.8618 143.936 30.4805 143.727 31.0954C143.515 31.7122 143.173 32.2776 142.708 32.7992C142.415 33.1209 142.114 33.2865 141.798 33.296C141.484 33.3074 141.157 33.2008 140.816 32.9743L135.383 29.3193ZM140.633 27.3718C140.07 26.8636 139.426 26.6237 138.707 26.6522C137.989 26.6827 137.292 27.0216 136.622 27.6726L140.976 30.5757C141.316 30.1055 141.484 29.5839 141.484 29.0052C141.482 28.4284 141.198 27.8839 140.633 27.3718Z" fill="#2F5088"/>
<path d="M149.841 41.2703C150.378 40.8706 150.656 40.4251 150.679 39.9321C150.7 39.4428 150.517 38.9346 150.125 38.4111C149.86 38.0475 149.565 37.7467 149.249 37.5087C148.937 37.2689 148.625 37.0861 148.32 36.9624L141.551 42.0052C141.442 41.9119 141.301 41.7843 141.12 41.6263C140.945 41.4683 140.768 41.2665 140.593 41.0305C140.268 40.5926 140.11 40.21 140.11 39.8788C140.117 39.5456 140.325 39.2258 140.734 38.9193L146.742 34.4495C147.039 34.2268 147.33 34.1088 147.61 34.0916C147.89 34.0764 148.212 34.1373 148.583 34.2668C149.101 34.4419 149.666 34.7693 150.285 35.2434C150.896 35.7174 151.473 36.3132 152.013 37.0347C152.967 38.3197 153.424 39.5266 153.38 40.6536C153.338 41.7805 152.769 42.7514 151.67 43.5719L145.912 47.8608C145.809 47.779 145.668 47.6571 145.489 47.4896C145.308 47.324 145.133 47.1317 144.968 46.9071C144.631 46.4578 144.469 46.0695 144.478 45.7439C144.488 45.4165 144.695 45.1005 145.109 44.7921L149.841 41.2703Z" fill="#2F5088"/>
<path d="M153.435 58.8622C153.112 59.0144 152.82 59.0659 152.556 59.0202C152.291 58.9707 152.004 58.8507 151.688 58.6528C151.299 58.4091 150.871 58.0436 150.412 57.5562C149.951 57.0708 149.542 56.4464 149.182 55.6888C148.39 54.0002 148.189 52.4582 148.59 51.061C148.986 49.6618 150.077 48.5443 151.863 47.701C152.792 47.267 153.65 47.0233 154.442 46.9757C155.238 46.9262 155.958 47.029 156.61 47.2803C157.262 47.5335 157.836 47.9199 158.339 48.4358C158.842 48.9555 159.262 49.5723 159.599 50.29C159.778 50.6707 159.908 51.0476 159.991 51.4208C160.073 51.7939 160.121 52.1403 160.132 52.4621L163.949 50.6612C164.042 50.7545 164.158 50.903 164.301 51.1047C164.436 51.3065 164.566 51.5312 164.682 51.7882C164.92 52.2926 165.004 52.7038 164.929 53.0236C164.857 53.3377 164.589 53.6061 164.122 53.8251L153.435 58.8622ZM157.981 53.4729C158.008 53.2045 158 52.9094 157.953 52.5877C157.901 52.266 157.804 51.9424 157.652 51.6206C157.281 50.8363 156.719 50.3014 155.969 50.0178C155.217 49.7379 154.265 49.8674 153.113 50.4099C152.028 50.922 151.358 51.5407 151.092 52.2774C150.829 53.0122 150.901 53.8041 151.303 54.6608C151.474 55.0263 151.667 55.3213 151.872 55.5422C152.078 55.7611 152.282 55.9381 152.48 56.0676L157.981 53.4729Z" fill="#2F5088"/>
<path fill-rule="evenodd" clip-rule="evenodd" d="M44.6867 91.4603C35.0009 83.7067 22.5243 79.6272 7.32167 81.4833C1.88101 82.1476 1.07957 84.59 7.00186 85.2658C22.5281 87.0362 34.1595 91.5803 43.3637 100.347C61.6064 117.719 70.5651 122.791 77.4468 109.551C82.4249 99.9697 87.5229 98.7971 91.572 103.08C104.464 116.714 114.38 115.903 123.925 98.9341C129.264 89.4387 139.38 81.6394 154.183 75.285C156.018 73.9334 155.91 73.3718 153.431 73.7811C137.05 75.5286 124.962 79.2274 119.735 87.2228C111.897 99.212 102.314 101.291 92.7598 92.8729C87.3097 88.0737 81.7643 88.6848 75.4441 93.147C63.7062 101.434 54.0698 98.9741 44.6867 91.4603Z" fill="#F5ED59" stroke="#F5ED59" stroke-width="0.630111" stroke-miterlimit="22.9256"/>
</svg>
