<svg width="81" height="75" viewBox="0 0 81 75" fill="none" xmlns="http://www.w3.org/2000/svg">
<path d="M41.7154 75C59.5633 75 74.0319 60.5315 74.0319 42.6836C74.0319 24.8357 59.5633 10.3671 41.7154 10.3671C23.8675 10.3671 9.39893 24.8357 9.39893 42.6836C9.39893 60.5315 23.8675 75 41.7154 75Z" fill="#F5ED59"/>
<path d="M39.5719 41.5721C43.1378 41.5721 46.0285 38.7921 46.0285 35.3629C46.0285 31.9336 43.1378 29.1536 39.5719 29.1536C36.0061 29.1536 33.1154 31.9336 33.1154 35.3629C33.1154 38.7921 36.0061 41.5721 39.5719 41.5721Z" fill="#2F5088"/>
<path fill-rule="evenodd" clip-rule="evenodd" d="M21.9052 45.7275C17.1573 41.9258 11.0413 39.9261 3.58904 40.8359C0.922052 41.1616 0.529188 42.3588 3.43227 42.6901C11.0432 43.5579 16.7448 45.7854 21.2567 50.0826C30.1992 58.5996 34.5907 61.0856 37.9641 54.5945C40.4043 49.8979 42.9033 49.323 44.8882 51.4227C51.2076 58.1069 56.0685 57.7094 60.7474 49.3902C63.3649 44.7365 68.3237 40.9124 75.58 37.7975C76.4796 37.135 76.4264 36.8597 75.2114 37.0612C67.1815 37.9179 61.2559 39.7301 58.6935 43.6503C54.8516 49.5265 50.154 50.5455 45.4705 46.42C42.7988 44.0665 40.0805 44.3661 36.9824 46.5543C31.2285 50.6164 26.5048 49.4108 21.9052 45.7275Z" fill="#F5ED59" stroke="#F5ED59" stroke-width="0.308878" stroke-miterlimit="22.9256"/>
<path d="M4.11163 31.6703C3.70757 31.5966 3.3455 31.5891 3.02916 31.6479C2.71282 31.7058 2.44126 31.8168 2.21357 31.9801C1.98588 32.1434 1.80111 32.3543 1.6574 32.61C1.5137 32.8666 1.41291 33.155 1.35412 33.4769C1.3224 33.6505 1.29813 33.8072 1.28414 33.9463C1.26921 34.0872 1.25801 34.2225 1.25241 34.3522L5.86878 35.1986C5.92197 35.0763 5.96863 34.9373 6.00969 34.7768C6.05075 34.6182 6.08621 34.4605 6.11421 34.3037C6.24298 33.6057 6.1394 33.029 5.8044 32.5736C5.46846 32.1182 4.90482 31.8168 4.11163 31.6703ZM4.37385 30.1754C4.98041 30.2855 5.49365 30.4702 5.91451 30.7306C6.3363 30.9891 6.66477 31.3073 6.90273 31.6834C7.13976 32.0594 7.29093 32.4868 7.35812 32.9693C7.42531 33.448 7.40758 33.9668 7.30586 34.522C7.2816 34.648 7.25547 34.7871 7.22374 34.9354C7.19295 35.0847 7.15375 35.2397 7.10523 35.3955C7.05671 35.5541 7.00445 35.71 6.94379 35.8649C6.88407 36.0216 6.81595 36.1654 6.73663 36.2988C6.53693 36.6329 6.27845 36.7719 5.96304 36.7141L0.457351 35.7053C0.322041 35.681 0.22406 35.6251 0.163404 35.5355C0.101815 35.4468 0.0607556 35.3302 0.0411591 35.1874C-0.00643241 34.8925 -0.0120315 34.5799 0.0206293 34.2505C0.0551565 33.9183 0.0990156 33.6075 0.152206 33.3164C0.253921 32.7537 0.422823 32.2517 0.654249 31.8103C0.886607 31.3689 1.17776 31.0105 1.53049 30.7343C1.88323 30.4581 2.29756 30.2687 2.77347 30.1651C3.24939 30.0634 3.78222 30.0662 4.37385 30.1754Z" fill="white"/>
<path d="M3.4855 27.5056C3.49576 27.4431 3.51349 27.3535 3.53682 27.235C3.56015 27.1174 3.59841 26.9952 3.65253 26.8682C3.75705 26.6154 3.87929 26.4502 4.01927 26.3709C4.15831 26.2934 4.34588 26.3018 4.5773 26.4007L8.98745 28.2353C8.97812 28.2979 8.96225 28.3874 8.93706 28.505C8.91373 28.6235 8.87453 28.7448 8.82321 28.8727C8.7159 29.1256 8.59365 29.2907 8.45368 29.3673C8.31464 29.4475 8.128 29.4373 7.89564 29.3402L3.4855 27.5056ZM1.91218 26.9728C1.70782 26.8888 1.56317 26.7451 1.48012 26.5407C1.39614 26.3363 1.4008 26.1208 1.49319 25.8968C1.58837 25.6701 1.73488 25.5189 1.93924 25.4377C2.14267 25.3575 2.3461 25.3584 2.54953 25.4433C2.76043 25.532 2.90787 25.6757 2.99465 25.8763C3.07957 26.0788 3.07677 26.2897 2.98159 26.5155C2.88734 26.7404 2.7399 26.8962 2.53553 26.9784C2.33117 27.0633 2.12401 27.0623 1.91218 26.9728Z" fill="white"/>
<path d="M9.7396 24.5894C9.84504 24.3953 9.92343 24.2068 9.97289 24.0267C10.0233 23.8457 10.041 23.7038 10.0261 23.6021L8.91094 22.9983L8.47422 24.022C8.35758 24.3066 8.30532 24.5418 8.31932 24.7331C8.33425 24.9216 8.43876 25.0681 8.63286 25.1736C8.82696 25.279 9.01732 25.2874 9.20209 25.2015C9.38686 25.1148 9.56696 24.9113 9.7396 24.5894ZM5.6262 22.4226C5.97987 21.7638 6.40446 21.3158 6.89624 21.0751C7.38988 20.8343 7.93112 20.8735 8.52088 21.1927L10.8445 22.445C11.0059 22.5327 11.1123 22.6419 11.1617 22.7716C11.2131 22.9032 11.2429 23.0506 11.2504 23.2102C11.2625 23.4603 11.2261 23.7458 11.1365 24.0715C11.0488 24.3944 10.9051 24.7415 10.7054 25.1101C10.3443 25.7801 9.92903 26.2402 9.46431 26.4847C8.99866 26.731 8.50688 26.717 7.98991 26.4371C7.54106 26.1935 7.27417 25.8669 7.19018 25.4544C7.10527 25.0401 7.18272 24.5474 7.42254 23.9763L8.02444 22.5224L7.8434 22.4244C7.58865 22.2863 7.35255 22.2789 7.13139 22.3955C6.9121 22.515 6.71147 22.7436 6.53043 23.0786C6.38953 23.3408 6.28408 23.6114 6.21316 23.8951C6.14317 24.1769 6.10211 24.441 6.09278 24.6855C5.99946 24.7303 5.89215 24.7536 5.77457 24.7546C5.65792 24.7564 5.54594 24.7275 5.43676 24.6706C5.30425 24.5978 5.21094 24.5073 5.16148 24.399C5.11202 24.2898 5.09149 24.148 5.10176 23.9698C5.12509 23.7318 5.18481 23.4789 5.27906 23.2083C5.37237 22.9386 5.48809 22.6755 5.6262 22.4226Z" fill="white"/>
<path d="M9.95512 16.0771C10.1884 15.7944 10.4497 15.5685 10.7418 15.3996C11.0339 15.2289 11.3465 15.129 11.6824 15.0991C12.0174 15.0674 12.3636 15.1141 12.7238 15.2354C13.0812 15.3567 13.447 15.5713 13.8175 15.8746C14.1898 16.1788 14.4688 16.498 14.6592 16.832C14.8505 17.1633 14.9597 17.5048 14.9877 17.8538C15.0166 18.2047 14.9672 18.5547 14.8356 18.9055C14.7049 19.2573 14.5024 19.5998 14.2272 19.9357C13.9463 20.2782 13.6617 20.5423 13.3714 20.728C13.0812 20.9137 12.8125 21.0425 12.5643 21.1162C12.3814 21.1713 12.2152 21.1899 12.0706 21.1685C11.9241 21.1489 11.7851 21.0817 11.6479 20.9706L6.80475 16.9981C6.82621 16.9347 6.86634 16.8535 6.92793 16.7508C6.98672 16.6463 7.06324 16.5399 7.15562 16.428C7.32359 16.2199 7.48783 16.0995 7.64553 16.0612C7.80604 16.0239 7.98334 16.0846 8.17744 16.2451L9.38775 17.238C9.42508 17.0607 9.48854 16.874 9.57625 16.6753C9.66397 16.4765 9.79088 16.2768 9.95512 16.0771ZM10.6802 16.9963C10.5486 17.1558 10.4562 17.3229 10.4002 17.5002C10.3452 17.6747 10.3079 17.8408 10.2911 17.9929L12.5017 19.806C12.61 19.7678 12.7397 19.7034 12.8909 19.6082C13.0411 19.5149 13.1867 19.3842 13.3276 19.2135C13.5973 18.8822 13.7055 18.5267 13.6495 18.145C13.5917 17.7633 13.3369 17.3863 12.8825 17.0149C12.4224 16.6361 12.0062 16.4597 11.632 16.484C11.2588 16.5082 10.9405 16.679 10.6802 16.9963Z" fill="white"/>
<path d="M16.3314 14.4589C16.6627 14.6885 16.9949 14.7771 17.3299 14.7267C17.6649 14.6745 17.9972 14.513 18.3238 14.2387C18.5701 14.0343 18.7661 13.8076 18.9126 13.5612C19.0591 13.3139 19.1617 13.0956 19.2215 12.9071C19.3428 12.8847 19.465 12.8931 19.5854 12.9323C19.7058 12.9687 19.8056 13.0349 19.8849 13.1273C19.9829 13.2449 20.0296 13.382 20.0277 13.5398C20.0231 13.6965 19.9801 13.8645 19.8961 14.0418C19.8122 14.2219 19.6918 14.4076 19.5331 14.5998C19.3764 14.7911 19.1879 14.9759 18.9723 15.1569C18.627 15.4453 18.2724 15.6618 17.9122 15.8055C17.5492 15.9483 17.1881 16.0098 16.8279 15.9884C16.4677 15.9669 16.1131 15.8633 15.7641 15.6776C15.416 15.4919 15.0838 15.212 14.7721 14.8378C14.4679 14.4748 14.2589 14.1118 14.145 13.7516C14.0321 13.3886 13.9948 13.0377 14.034 12.699C14.0704 12.3574 14.1805 12.0383 14.3597 11.7415C14.537 11.4429 14.7656 11.176 15.0474 10.9409C15.333 10.702 15.6353 10.5284 15.9498 10.4174C16.2652 10.3082 16.5759 10.2634 16.8802 10.2821C17.1834 10.2998 17.4783 10.3838 17.7629 10.5275C18.0475 10.6721 18.2995 10.8756 18.5207 11.1387C18.6578 11.303 18.7176 11.4607 18.6998 11.6128C18.684 11.7658 18.6093 11.9188 18.4768 12.0691L16.3314 14.4589ZM15.7445 11.7761C15.4571 12.014 15.2975 12.3108 15.262 12.6616C15.2266 13.0125 15.346 13.3736 15.6166 13.745L17.3225 11.8265C17.1172 11.6305 16.8755 11.512 16.5937 11.4747C16.3128 11.4355 16.03 11.5372 15.7445 11.7761Z" fill="white"/>
<path d="M22.0172 10.8047C22.1442 11.0128 22.3 11.122 22.481 11.1369C22.6639 11.1509 22.8683 11.0865 23.0951 10.9484C23.2061 10.8803 23.3115 10.8001 23.4086 10.7039C23.5066 10.6078 23.5887 10.5136 23.6559 10.4203C23.7399 10.4389 23.822 10.4763 23.9032 10.5285C23.9853 10.5817 24.0553 10.6564 24.115 10.7534C24.2345 10.9484 24.2447 11.164 24.1467 11.3982C24.0488 11.6315 23.8052 11.8667 23.4151 12.1046C22.9019 12.4191 22.4269 12.5497 21.9911 12.5003C21.5544 12.4508 21.1727 12.1588 20.848 11.6259L18.1147 7.15231C18.1586 7.10845 18.2249 7.04686 18.3126 6.96475C18.4012 6.88356 18.5039 6.80798 18.6215 6.73612C18.8482 6.59801 19.0432 6.53829 19.201 6.55602C19.3596 6.57562 19.5052 6.69226 19.6358 6.90689L20.1313 7.71501L21.5628 6.8397C21.6272 6.87236 21.6972 6.92182 21.7746 6.99181C21.853 7.05993 21.9211 7.14205 21.9818 7.24003C22.0835 7.408 22.1208 7.55637 22.09 7.68235C22.0602 7.80833 21.9799 7.91004 21.8502 7.98936L20.7192 8.67991L22.0172 10.8047Z" fill="white"/>
<path d="M25.5782 8.44009C25.8302 8.7555 26.1241 8.9356 26.4601 8.97946C26.7951 9.02612 27.1571 8.96359 27.5491 8.79469C27.8439 8.66871 28.095 8.50727 28.3059 8.31224C28.5168 8.11721 28.6782 7.93711 28.7874 7.77381C28.9096 7.78594 29.0235 7.8298 29.1289 7.89978C29.2344 7.96977 29.3127 8.06122 29.3613 8.1732C29.421 8.31224 29.4266 8.45688 29.379 8.60806C29.3323 8.75643 29.2428 8.90574 29.1121 9.05318C28.9805 9.20155 28.8126 9.34526 28.6073 9.48337C28.401 9.62241 28.1696 9.74745 27.9111 9.85943C27.4977 10.0377 27.0983 10.144 26.7101 10.1795C26.3229 10.215 25.9589 10.1711 25.6202 10.0479C25.2796 9.92476 24.9689 9.72412 24.688 9.44977C24.4071 9.17262 24.1691 8.80869 23.975 8.36263C23.7875 7.92778 23.6904 7.52278 23.683 7.14299C23.6774 6.76412 23.7417 6.41698 23.8743 6.10064C24.0077 5.78616 24.2009 5.51088 24.4575 5.27572C24.7122 5.04056 25.0081 4.8502 25.344 4.70649C25.6865 4.55718 26.0252 4.476 26.3583 4.4592C26.6915 4.4452 27.0022 4.48906 27.2887 4.59358C27.5724 4.69716 27.8327 4.85953 28.0632 5.07789C28.2965 5.29812 28.4813 5.565 28.6175 5.88041C28.7015 6.07638 28.7137 6.24341 28.6549 6.38712C28.5961 6.52803 28.4822 6.65214 28.3115 6.75945L25.5782 8.44009ZM25.776 5.70124C25.4317 5.85148 25.1937 6.08851 25.0622 6.41512C24.9297 6.74266 24.9409 7.12246 25.0948 7.55358L27.2728 6.19956C27.1329 5.95413 26.9341 5.77217 26.6766 5.65459C26.4171 5.53701 26.1176 5.5538 25.776 5.70124Z" fill="white"/>
<path d="M34.8147 6.10995C34.9295 6.62972 34.8278 7.07951 34.5077 7.45837C34.1886 7.84004 33.6567 8.11346 32.912 8.27956C32.6078 8.34862 32.326 8.38781 32.0675 8.39901C31.8099 8.4102 31.5794 8.39247 31.3769 8.34768C31.1772 8.30382 31.013 8.23197 30.8842 8.13119C30.7564 8.03134 30.6752 7.90629 30.6416 7.75792C30.6108 7.61701 30.6155 7.4873 30.6556 7.36879C30.6948 7.25028 30.7601 7.1467 30.8497 7.05711C31.0867 7.14296 31.3536 7.20829 31.6466 7.25308C31.9406 7.29414 32.2662 7.27734 32.6246 7.19802C32.9288 7.12896 33.1471 7.02632 33.2815 6.89287C33.414 6.75663 33.4607 6.59986 33.4215 6.42163C33.3534 6.11648 33.0856 5.96531 32.6171 5.9709L31.9611 5.96531C31.3844 5.96251 30.9337 5.86359 30.6127 5.66949C30.2935 5.47726 30.0864 5.16745 29.9902 4.74566C29.8829 4.26228 29.9884 3.82742 30.3066 3.43829C30.6257 3.05196 31.1352 2.77948 31.8314 2.62364C32.1001 2.56298 32.3512 2.52939 32.5872 2.51819C32.8233 2.50886 33.0333 2.52379 33.2181 2.56392C33.4028 2.60497 33.5521 2.66843 33.6707 2.75615C33.7873 2.84293 33.861 2.95678 33.8937 3.09769C33.9226 3.2302 33.9198 3.35431 33.8825 3.46909C33.8452 3.582 33.7929 3.67718 33.7248 3.75557C33.6483 3.72571 33.5503 3.70145 33.4327 3.68092C33.316 3.66039 33.1863 3.64639 33.0492 3.63799C32.9101 3.62959 32.7655 3.62959 32.6152 3.63612C32.4641 3.64265 32.3194 3.66132 32.1767 3.69211C31.8874 3.7593 31.6709 3.85542 31.529 3.98419C31.3863 4.1139 31.334 4.26508 31.3732 4.43398C31.4012 4.56182 31.4702 4.65514 31.5832 4.71486C31.6933 4.77739 31.8687 4.80631 32.1113 4.80725L32.688 4.81938C33.3366 4.82124 33.8284 4.92856 34.1624 5.13852C34.4993 5.34755 34.7149 5.67043 34.8147 6.10995Z" fill="white"/>
<path d="M42.0047 1.81455C42.0794 1.77816 42.1867 1.74363 42.3192 1.7119C42.4526 1.68017 42.5935 1.66524 42.7382 1.66804C42.9808 1.67364 43.1805 1.71377 43.3354 1.78935C43.4903 1.86401 43.5846 1.97505 43.62 2.1197C43.7264 2.48923 43.8244 2.8289 43.9149 3.14244C44.0036 3.45786 44.0913 3.76207 44.1753 4.05695C44.2621 4.35183 44.3423 4.64204 44.4207 4.92946C44.5 5.21687 44.5784 5.51269 44.6549 5.82063H44.7006C44.8014 5.33632 44.8947 4.86507 44.9806 4.41062C45.0646 3.9543 45.1504 3.50171 45.2363 3.05473C45.3203 2.60681 45.3996 2.15422 45.4724 1.69884C45.547 1.24438 45.6226 0.773136 45.701 0.286956C45.9016 0.184308 46.1191 0.134849 46.3551 0.140448C46.5679 0.144181 46.748 0.196439 46.8955 0.294422C47.041 0.392404 47.1129 0.54731 47.1091 0.761005C47.1063 0.913111 47.0811 1.13987 47.0382 1.44501C46.9934 1.74923 46.9356 2.09077 46.8637 2.47057C46.7909 2.85037 46.706 3.25256 46.6108 3.68182C46.5156 4.11014 46.4167 4.52726 46.3131 4.93319C46.2096 5.33725 46.106 5.71612 46.0033 6.06326C45.9016 6.41226 45.8036 6.69594 45.7085 6.91524C45.6151 6.98802 45.477 7.05055 45.2923 7.10187C45.1103 7.15133 44.9143 7.17279 44.7081 7.16906C44.4431 7.16439 44.2163 7.12053 44.0325 7.03562C43.8468 6.95163 43.7357 6.84618 43.7003 6.71461C43.6359 6.5401 43.5659 6.33108 43.4913 6.08845C43.4147 5.84583 43.3364 5.58454 43.2542 5.30086C43.1721 5.01811 43.0891 4.72136 43.0023 4.41155C42.9183 4.09987 42.8362 3.78446 42.7587 3.46252C42.6701 3.7742 42.5777 4.09148 42.4825 4.41249C42.3901 4.73443 42.2977 5.04424 42.2082 5.34378C42.1176 5.64146 42.029 5.92235 41.9413 6.18457C41.8517 6.44399 41.7705 6.66608 41.6996 6.84805C41.6137 6.91524 41.4849 6.97309 41.3114 7.02255C41.1406 7.07294 40.9502 7.09627 40.744 7.09161C40.4874 7.08601 40.2578 7.04215 40.0628 6.95816C39.8659 6.87418 39.7381 6.76686 39.6793 6.63622C39.6149 6.48225 39.543 6.26389 39.4646 5.9802C39.3863 5.69746 39.3051 5.37365 39.2202 5.01065C39.1371 4.64671 39.0522 4.25571 38.9701 3.83579C38.887 3.41493 38.8077 2.99407 38.7312 2.57788C38.6556 2.16075 38.5856 1.75763 38.5212 1.36383C38.4568 0.970034 38.4083 0.612631 38.3775 0.292555C38.4624 0.216969 38.5744 0.14978 38.7125 0.0881913C38.8506 0.0256692 39.0074 -0.00419237 39.1819 0.000473463C39.3956 0.00327296 39.5673 0.055531 39.6979 0.157246C39.8304 0.258961 39.9116 0.421331 39.9462 0.643425C40.0479 1.27705 40.1375 1.83695 40.2112 2.32126C40.284 2.80651 40.3539 3.24789 40.4183 3.64635C40.4827 4.04295 40.5452 4.41062 40.6031 4.74562C40.661 5.0825 40.7207 5.41564 40.7832 5.74411L40.8401 5.74598C40.9306 5.41937 41.0174 5.11516 41.1051 4.83708C41.1901 4.55619 41.2769 4.26784 41.3664 3.97296C41.456 3.67715 41.5521 3.35894 41.6538 3.01274C41.7556 2.66933 41.8722 2.26994 42.0047 1.81455Z" fill="white"/>
<path d="M49.6716 5.94479C49.6725 6.34699 49.7873 6.67173 50.0197 6.91622C50.253 7.16257 50.5749 7.34267 50.9864 7.45465C51.2944 7.53864 51.5911 7.57223 51.8767 7.55264C52.1632 7.53211 52.4011 7.49292 52.5906 7.43413C52.6773 7.51998 52.7399 7.62543 52.7781 7.7458C52.8155 7.86712 52.8173 7.98563 52.7847 8.10414C52.7455 8.25065 52.6596 8.36636 52.5299 8.45314C52.3974 8.54086 52.236 8.59965 52.0419 8.63324C51.8468 8.66684 51.6257 8.67337 51.3784 8.65191C51.133 8.63231 50.8717 8.58379 50.602 8.5082C50.1671 8.39155 49.7892 8.22265 49.4654 8.00802C49.1425 7.79153 48.8859 7.53211 48.6983 7.2223C48.5108 6.91528 48.3941 6.56441 48.3475 6.17342C48.3027 5.78149 48.3437 5.35036 48.4725 4.88005C48.5985 4.42559 48.7767 4.0486 49.0081 3.74812C49.2414 3.4495 49.5064 3.21808 49.8079 3.05757C50.1102 2.89427 50.434 2.80189 50.7793 2.77856C51.1255 2.75616 51.4745 2.79162 51.8263 2.89054C52.1865 2.98852 52.5 3.13596 52.7697 3.33286C53.0403 3.52976 53.255 3.75745 53.4117 4.01687C53.5694 4.27815 53.6693 4.5665 53.7122 4.88285C53.7552 5.19732 53.7318 5.52113 53.6413 5.85241C53.5853 6.0577 53.4892 6.19675 53.3539 6.27047C53.2204 6.34419 53.0525 6.36938 52.8546 6.34512L49.6716 5.94479ZM51.5389 3.93475C51.1796 3.83677 50.8465 3.87409 50.5367 4.04393C50.2296 4.2175 50.0001 4.51891 49.8498 4.95097L52.3946 5.25985C52.4394 4.9799 52.3983 4.71488 52.2714 4.46292C52.1426 4.2091 51.8991 4.03367 51.5389 3.93475Z" fill="white"/>
<path d="M55.7447 7.80178C55.684 8.19931 55.7493 8.53711 55.9434 8.8152C56.1375 9.09328 56.4296 9.31817 56.8188 9.49361C57.1108 9.62332 57.4001 9.69984 57.6875 9.7213C57.9731 9.74556 58.2129 9.7409 58.4089 9.71197C58.4826 9.81182 58.5274 9.92473 58.5479 10.0488C58.5675 10.1748 58.5535 10.2924 58.5022 10.4044C58.4406 10.5434 58.3389 10.647 58.197 10.7133C58.0552 10.7786 57.8854 10.8131 57.6875 10.8178C57.4897 10.8215 57.2704 10.7944 57.0287 10.7375C56.788 10.6806 56.536 10.5938 56.2803 10.479C55.8688 10.2971 55.5198 10.075 55.2324 9.81369C54.9431 9.5524 54.7303 9.25285 54.5904 8.92065C54.4504 8.58751 54.386 8.22357 54.3991 7.82884C54.4121 7.43504 54.5185 7.01418 54.7163 6.56813C54.9086 6.13794 55.1419 5.7908 55.4171 5.53045C55.6915 5.2673 55.9901 5.07973 56.3111 4.96402C56.634 4.84831 56.9681 4.80631 57.3143 4.83524C57.6614 4.86324 58.0011 4.95189 58.3351 5.1012C58.6748 5.25237 58.965 5.44553 59.203 5.67976C59.4391 5.91585 59.6164 6.17247 59.734 6.45429C59.8497 6.73517 59.9066 7.03658 59.9019 7.35479C59.8973 7.67487 59.8263 7.99028 59.6864 8.30382C59.6005 8.49885 59.4857 8.62203 59.3402 8.67616C59.1965 8.72841 59.0276 8.72935 58.8335 8.67522L55.7447 7.80178ZM57.8928 6.09222C57.5522 5.94104 57.2163 5.92611 56.885 6.05116C56.5547 6.1762 56.2831 6.44029 56.0704 6.84435L58.5414 7.53209C58.6272 7.26241 58.6263 6.99179 58.5386 6.72397C58.4499 6.45522 58.2344 6.24526 57.8928 6.09222Z" fill="white"/>
<path d="M60.6317 12.6673C60.5673 12.6403 60.4796 12.6039 60.3732 12.5572C60.2668 12.5106 60.153 12.4471 60.0354 12.3641C59.8152 12.212 59.6808 12.0589 59.6304 11.9031C59.5819 11.7482 59.6267 11.5671 59.7713 11.3609L63.6682 5.74512C63.7298 5.76098 63.8156 5.79364 63.9239 5.8459C64.0321 5.89816 64.145 5.96534 64.2636 6.0484C64.4838 6.19957 64.6182 6.35354 64.6667 6.50751C64.7171 6.66428 64.6704 6.84532 64.5286 7.05155L62.5083 9.9621L65.5868 9.41339C65.8257 9.57857 65.9787 9.76427 66.0496 9.9705C66.1187 10.1767 66.0991 10.3615 65.9852 10.5248C65.8854 10.6685 65.7538 10.7628 65.5877 10.8057C65.4235 10.8486 65.1883 10.8859 64.8822 10.9139L63.2539 11.0922L63.881 14.0167C63.7046 14.2201 63.5217 14.3442 63.3285 14.3928C63.1382 14.4413 62.9413 14.3965 62.7425 14.2565C62.5988 14.1557 62.4943 14.0335 62.4345 13.8898C62.372 13.7452 62.3235 13.5296 62.288 13.245L61.968 10.7413L60.6317 12.6673Z" fill="white"/>
<path d="M66.3641 14.3722C66.1821 14.7315 66.1411 15.0758 66.2381 15.3987C66.3352 15.7234 66.5423 16.0286 66.8587 16.3141C67.0948 16.5287 67.3458 16.692 67.6117 16.8022C67.8749 16.9132 68.1063 16.9851 68.3004 17.0177C68.3396 17.1353 68.349 17.2557 68.3294 17.3816C68.307 17.5076 68.2566 17.6149 68.1754 17.7045C68.0718 17.8184 67.9421 17.8837 67.7881 17.9024C67.6323 17.921 67.4606 17.9014 67.2711 17.8436C67.0826 17.7848 66.882 17.6905 66.6711 17.5618C66.4584 17.4311 66.2475 17.2734 66.0403 17.0849C65.7062 16.7826 65.4421 16.4625 65.2508 16.1228C65.0577 15.785 64.9476 15.436 64.9186 15.0758C64.8906 14.7156 64.9429 14.3517 65.0782 13.9793C65.2126 13.6089 65.444 13.2421 65.7706 12.8819C66.0879 12.5301 66.4173 12.2744 66.7607 12.1111C67.1022 11.9488 67.4447 11.862 67.7881 11.8536C68.1306 11.8442 68.46 11.9068 68.7801 12.0411C69.0992 12.1774 69.396 12.3677 69.6666 12.6132C69.9428 12.8614 70.1584 13.1367 70.3095 13.4344C70.4626 13.7302 70.5512 14.0306 70.5746 14.3358C70.5979 14.6381 70.5568 14.9414 70.4542 15.2428C70.3506 15.5452 70.1826 15.8223 69.9549 16.078C69.8112 16.2357 69.6638 16.3169 69.5089 16.3216C69.3549 16.3272 69.1944 16.2749 69.0274 16.1639L66.3641 14.3722ZM68.9378 13.4176C68.6616 13.1684 68.3461 13.0508 67.9934 13.0648C67.6416 13.0798 67.3001 13.2459 66.9716 13.565L69.1057 14.9881C69.2728 14.7576 69.3549 14.5019 69.3549 14.2182C69.354 13.9355 69.2149 13.6686 68.9378 13.4176Z" fill="white"/>
<path d="M73.4515 20.2305C73.7147 20.0346 73.8509 19.8162 73.8621 19.5745C73.8724 19.3347 73.7828 19.0855 73.5905 18.8289C73.4608 18.6507 73.3162 18.5033 73.1613 18.3866C73.0082 18.269 72.8552 18.1794 72.7059 18.1188L69.3876 20.5907C69.3344 20.545 69.2653 20.4825 69.1767 20.405C69.0908 20.3276 69.004 20.2287 68.9182 20.113C68.7586 19.8983 68.6812 19.7108 68.6812 19.5484C68.6849 19.3851 68.7866 19.2283 68.9872 19.0781L71.9323 16.887C72.0779 16.7778 72.2207 16.72 72.3578 16.7116C72.495 16.7041 72.6527 16.734 72.8347 16.7974C73.0885 16.8833 73.3657 17.0438 73.6689 17.2761C73.9685 17.5085 74.2512 17.8006 74.5162 18.1542C74.9838 18.7841 75.2077 19.3758 75.1863 19.9282C75.1657 20.4806 74.8867 20.9565 74.3483 21.3587L71.5254 23.4612C71.4751 23.421 71.406 23.3613 71.3183 23.2792C71.2296 23.198 71.1438 23.1038 71.0626 22.9937C70.8974 22.7734 70.8181 22.5831 70.8228 22.4235C70.8274 22.263 70.9292 22.1081 71.1316 21.9569L73.4515 20.2305Z" fill="white"/>
<path d="M75.2133 28.854C75.0547 28.9286 74.9119 28.9538 74.7822 28.9314C74.6525 28.9072 74.5116 28.8484 74.3567 28.7513C74.1663 28.6319 73.9563 28.4527 73.7314 28.2138C73.5056 27.9759 73.305 27.6698 73.1286 27.2984C72.7404 26.4707 72.6415 25.7148 72.8384 25.0299C73.0325 24.344 73.5672 23.7962 74.4425 23.3828C74.8979 23.1701 75.3188 23.0506 75.707 23.0273C76.097 23.003 76.4498 23.0534 76.7698 23.1766C77.089 23.3007 77.3708 23.4901 77.6172 23.743C77.8635 23.9978 78.0697 24.3001 78.2349 24.6519C78.3226 24.8386 78.3861 25.0233 78.4271 25.2062C78.4673 25.3891 78.4906 25.559 78.4962 25.7167L80.3672 24.8339C80.4129 24.8796 80.4698 24.9524 80.5398 25.0513C80.6061 25.1502 80.6695 25.2604 80.7265 25.3863C80.8431 25.6336 80.8842 25.8352 80.8478 25.992C80.8123 26.1459 80.6807 26.2775 80.4521 26.3848L75.2133 28.854ZM77.4417 26.2122C77.4548 26.0806 77.451 25.936 77.4277 25.7783C77.4025 25.6206 77.3549 25.4619 77.2803 25.3042C77.0983 24.9197 76.823 24.6575 76.4554 24.5185C76.0868 24.3813 75.6202 24.4448 75.0556 24.7107C74.5237 24.9617 74.1952 25.265 74.0646 25.6262C73.9358 25.9864 73.9713 26.3746 74.1682 26.7945C74.2522 26.9736 74.3464 27.1183 74.4472 27.2265C74.548 27.3338 74.6478 27.4206 74.7449 27.4841L77.4417 26.2122Z" fill="white"/>
<path fill-rule="evenodd" clip-rule="evenodd" d="M21.9052 44.8335C17.1573 41.0327 11.0413 39.033 3.58904 39.9428C0.922052 40.2685 0.529188 41.4657 3.43227 41.797C11.0432 42.6648 16.7448 44.8923 21.2567 49.1895C30.1992 57.7056 34.5907 60.1916 37.9641 53.7014C40.4043 49.0048 42.9033 48.4299 44.8882 50.5296C51.2076 57.2129 56.0685 56.8154 60.7474 48.4971C63.3649 43.8425 68.3237 40.0193 75.58 36.9044C76.4796 36.2419 76.4264 35.9666 75.2114 36.1672C67.1815 37.0238 61.2559 38.837 58.6935 42.7563C54.8516 48.6334 50.154 49.6524 45.4705 45.5259C42.7988 43.1734 40.0805 43.473 36.9824 45.6603C31.2285 49.7224 26.5048 48.5167 21.9052 44.8335Z" fill="#2F5088" stroke="#2F5088" stroke-width="0.308878" stroke-miterlimit="22.9256"/>
</svg>
